<svg width="24" height="24" viewBox="0 0 24 24" fill="none" xmlns="http://www.w3.org/2000/svg">
<g clip-path="url(#clip0_759_3768)">
<mask id="mask0_759_3768" style="mask-type:luminance" maskUnits="userSpaceOnUse" x="0" y="0" width="24" height="24">
<path d="M24 0H0V24H24V0Z" fill="white"/>
</mask>
<g mask="url(#mask0_759_3768)">
<path d="M2.84863 20.6103C3.72263 20.6103 4.43091 19.9018 4.43091 19.0281V10.3249C4.43091 9.45092 3.72238 8.74268 2.84863 8.74268H1.58249C0.708532 8.74268 0 9.45117 0 10.3249V19.0281C0 19.9021 0.708532 20.6103 1.58254 20.6103H2.84863Z" fill="#3D8D7A"/>
<path d="M22.2534 8.74254H17.0034H15.6634H12.0739C11.7245 8.74254 11.5363 8.47558 11.654 8.14642L13.0741 4.16954C13.1917 3.84038 13.0148 3.48963 12.669 3.43916C11.9014 3.3273 10.5851 3.32105 9.69551 4.32358C9.46342 4.5851 9.19357 5.08802 8.99765 5.37739C8.10103 6.70257 6.80212 7.81182 6.09359 8.36474C5.81804 8.57992 5.58594 9.02591 5.58594 9.37535V19.9774C5.58594 20.3272 5.86931 20.6105 6.21901 20.6105H15.6319C15.9817 20.6105 16.4505 20.3964 16.6795 20.1323L17.2217 19.5065C17.4507 19.2424 17.6797 18.748 17.733 18.4027L18.6141 12.7077H22.2535C23.2183 12.7077 24.0002 11.8202 24.0002 10.7253C24.0002 9.63037 23.2183 8.74254 22.2534 8.74254Z" fill="#3D8D7A"/>
</g>
</g>
<defs>
<clipPath id="clip0_759_3768">
<rect width="24" height="24" fill="white"/>
</clipPath>
</defs>
</svg>
