<svg width="128" height="128" viewBox="0 0 128 128" fill="none" xmlns="http://www.w3.org/2000/svg">
<g clip-path="url(#clip0_1_142)">
<path d="M2.5 125.775L11.2 94.05C5.825 84.775 3 74.225 3 63.45C3.025 29.675 30.5 2.22501 64.25 2.22501C80.625 2.22501 96.025 8.60001 107.575 20.175C119.15 31.75 125.525 47.125 125.5 63.5C125.475 97.25 98 124.725 64.25 124.725H64.225C53.975 124.725 43.9 122.15 34.95 117.275L2.5 125.775Z" fill="url(#paint0_linear_1_142)"/>
<path d="M0.275 128L9.275 95.125C3.725 85.525 0.825 74.6 0.825 63.425C0.825 28.45 29.3 0 64.275 0C81.25 0 97.175 6.625 109.15 18.6C121.125 30.6 127.725 46.525 127.725 63.475C127.7 98.45 99.25 126.9 64.275 126.9H64.25C53.625 126.9 43.2 124.225 33.925 119.175L0.275 128ZM35.475 107.7L37.4 108.85C45.5 113.65 54.775 116.2 64.25 116.2H64.275C93.35 116.2 117 92.55 117 63.475C117 49.4 111.525 36.15 101.575 26.175C91.625 16.2 78.375 10.725 64.3 10.725C35.2 10.725 11.55 34.375 11.55 63.45C11.55 73.4 14.325 83.1 19.6 91.5L20.85 93.5L15.525 112.95L35.475 107.7Z" fill="url(#paint1_linear_1_142)"/>
<path fill-rule="evenodd" clip-rule="evenodd" d="M48.4 36.9C47.2 34.25 45.95 34.2 44.825 34.15C43.9 34.1 42.85 34.125 41.775 34.125C40.725 34.125 39 34.525 37.55 36.1C36.1 37.675 32 41.525 32 49.325C32 57.125 37.675 64.675 38.475 65.725C39.275 66.775 49.45 83.3 65.55 89.65C78.95 94.925 81.675 93.875 84.575 93.625C87.475 93.375 93.95 89.8 95.275 86.1C96.6 82.4 96.6 79.225 96.2 78.575C95.8 77.925 94.75 77.525 93.15 76.725C91.575 75.925 83.775 72.1 82.325 71.575C80.875 71.05 79.825 70.775 78.75 72.375C77.7 73.95 74.65 77.525 73.725 78.575C72.8 79.625 71.875 79.775 70.3 78.975C68.725 78.175 63.6 76.5 57.55 71.1C52.825 66.9 49.65 61.7 48.725 60.125C47.8 58.55 48.625 57.675 49.425 56.9C50.125 56.2 51 55.05 51.8 54.125C52.6 53.2 52.85 52.55 53.375 51.475C53.9 50.425 53.65 49.5 53.25 48.7C52.9 47.875 49.825 40.05 48.4 36.9Z" fill="white"/>
</g>
<defs>
<linearGradient id="paint0_linear_1_142" x1="63.9995" y1="125.785" x2="63.9995" y2="2.21651" gradientUnits="userSpaceOnUse">
<stop stop-color="#20B038"/>
<stop offset="1" stop-color="#60D66A"/>
</linearGradient>
<linearGradient id="paint1_linear_1_142" x1="64" y1="128" x2="64" y2="0" gradientUnits="userSpaceOnUse">
<stop stop-color="#F9F9F9"/>
<stop offset="1" stop-color="white"/>
</linearGradient>
<clipPath id="clip0_1_142">
<rect width="128" height="128" fill="white"/>
</clipPath>
</defs>
</svg>
