<svg width="128" height="128" viewBox="0 0 128 128" fill="none" xmlns="http://www.w3.org/2000/svg">
<path d="M125.325 32.991C123.853 27.448 119.516 23.0827 114.009 21.601C104.027 18.909 64 18.909 64 18.909C64 18.909 23.9733 18.909 13.9913 21.601C8.484 23.0825 4.14675 27.448 2.67475 32.991C0 43.038 0 64 0 64C0 64 0 84.962 2.67475 95.009C4.14675 100.552 8.484 104.917 13.9913 106.399C23.9733 109.091 64 109.091 64 109.091C64 109.091 104.027 109.091 114.009 106.399C119.516 104.917 123.853 100.552 125.325 95.009C128 84.962 128 64 128 64C128 64 128 43.038 125.325 32.991Z" fill="#FF0000"/>
<path d="M50.909 83.032L84.3635 64.0005L50.909 44.968V83.032Z" fill="white"/>
</svg>
