<svg width="49" height="48" viewBox="0 0 49 48" fill="none" xmlns="http://www.w3.org/2000/svg">
<g clip-path="url(#clip0_809_5056)">
<path d="M48.4548 2.00705C48.4286 1.81915 48.3276 1.64982 48.1747 1.53749L46.2679 0.136515C45.9609 -0.0890744 45.5297 -0.029161 45.2961 0.272L43.199 2.97373L38.9486 4.73831C38.8393 4.78351 38.7343 4.86133 38.663 4.95631L35.7559 8.69757C34.0036 7.66338 31.8066 9.3388 32.2985 11.3015L14.5225 34.1744L12.1697 32.3327C12.9207 31.1083 12.6494 29.4815 11.4934 28.5766L9.21104 26.7902C8.84763 26.5573 8.51806 26.5981 8.22233 26.9125L3.99473 32.353C3.43686 33.071 4.54755 33.934 5.10534 33.2159L8.89994 28.3328L10.6266 29.6842C11.2584 30.1787 11.3716 31.0971 10.8787 31.7314L5.98603 38.0276C5.50185 38.6506 4.58159 38.7658 3.95986 38.2791L2.22565 36.9216L2.85516 36.1115C3.41304 35.3935 2.30253 34.5307 1.74456 35.2486L0.685059 36.612C0.447374 36.918 0.501849 37.3585 0.806948 37.5973L3.09294 39.3866C4.22707 40.2742 5.88993 40.1639 6.89214 39.1255L9.65388 41.2872L11.1617 44.8126C11.4669 45.526 12.0627 46.0782 12.7962 46.3273L17.2908 47.8544C18.4168 48.237 19.722 47.8463 20.4538 46.9046L23.0093 43.6159C23.8242 42.5673 23.7725 41.1275 23.0072 40.0716L35.7273 23.7046C36.2852 22.9868 35.1748 22.1236 34.6168 22.8415L31.0351 27.4502V15.2192C31.2581 14.9322 33.0777 12.5413 33.1279 12.5807L39.0119 17.1862L36.9457 19.8449C36.3983 20.5492 37.482 21.4467 38.0562 20.708L40.2556 17.8781C42.4873 18.3897 44.0568 15.575 42.451 13.938L45.3611 10.1929C45.4357 10.0971 45.4841 9.98359 45.5017 9.86349L46.1718 5.29479L48.3138 2.5353C48.4301 2.38547 48.481 2.19495 48.4548 2.00705ZM10.1073 39.8559L7.76872 38.0255L11.3209 33.4544L13.6594 35.2849L10.1073 39.8559ZM21.8988 42.7531L19.3433 46.0418C18.9665 46.5267 18.3237 46.7198 17.7434 46.5228L13.2488 44.9957C13.0079 44.9139 12.799 44.7636 12.6421 44.5683L16.5057 39.5967C16.744 39.29 16.6886 38.8483 16.3819 38.6099C16.0752 38.3716 15.6336 38.4271 15.3952 38.7336L11.9742 43.1356L11.039 40.949L14.9616 35.9012L18.5009 36.4723C18.8721 36.5322 19.2018 36.7484 19.4054 37.0657L21.9744 41.0662C22.3087 41.5867 22.2784 42.2647 21.8988 42.7531ZM20.5889 36.3057C20.1696 35.6527 19.4902 35.2073 18.725 35.0838L15.9454 34.6354L23.579 24.8131V37.044L22.2014 38.8167L20.5889 36.3057ZM29.6288 29.2598L24.9855 35.2343V23.0035L29.6288 17.0288V29.2598ZM41.5183 16.169C41.2039 16.5735 40.6067 16.6483 40.203 16.3323L33.9949 11.4731C33.039 10.7249 34.1834 9.22638 35.1464 9.98013L41.3546 14.8394C41.765 15.1607 41.8384 15.7571 41.5183 16.169ZM41.3563 13.0546L36.8761 9.54798L39.3405 6.3766L41.4023 7.99042C42.1012 8.53705 42.9961 7.45195 42.2692 6.88282L40.5994 5.57588L43.5304 4.35896L44.7477 5.31185L44.137 9.47607L41.3563 13.0546ZM45.3804 4.02085L44.6254 3.42988L45.9872 1.67542L46.7601 2.24333L45.3804 4.02085Z" fill="black"/>
<path d="M5.275 17.7707C6.87926 18.9283 9.09108 19.3997 11.2627 19.0886C11.0541 20.2063 11.2152 20.9723 11.2244 21.0141C11.3571 21.4271 11.6386 21.6054 12.0687 21.5488C12.767 21.3885 13.4069 21.0863 13.96 20.6635V22.7277C13.96 23.1162 14.2749 23.4309 14.6632 23.4309C15.0516 23.4309 15.3664 23.1162 15.3664 22.7277V20.6896C15.8755 21.0897 16.4524 21.3812 17.0735 21.5438C17.3987 21.6288 17.8 21.4181 17.9136 21.1004C17.951 20.9961 18.1996 20.2408 18.0294 19.0876C20.1948 19.4116 22.408 18.9398 24.0165 17.769C24.3892 17.4122 24.4017 17.0431 24.0543 16.6615C22.7299 15.5513 21.1233 15.1332 19.6363 15.043C21.4409 13.437 22.5006 11.7064 22.8591 9.79344C22.948 9.31882 22.5225 8.88686 22.0463 8.97125C20.3012 9.27775 18.5007 10.2575 16.9603 11.6976C17.1458 9.42533 16.9054 6.78558 15.2299 4.53756C14.9529 4.16589 14.3791 4.16589 14.1022 4.53756C12.4294 6.78202 12.1867 9.41708 12.3709 11.6882C11.1432 10.5156 9.38934 9.27644 7.25927 8.96787C6.71358 8.97115 6.44946 9.2455 6.4668 9.79091C6.81766 11.7004 7.87631 13.4311 9.68619 15.0407C8.18301 15.1259 6.56122 15.5428 5.23309 16.6629C4.88674 17.0458 4.90071 17.415 5.275 17.7707ZM11.7549 16.5267C12.4703 16.6192 12.8384 15.6583 12.2436 15.2497C10.0972 13.7754 8.77192 12.2863 8.15347 10.6337C9.35812 11.0509 11.1234 12.0287 12.8286 14.3192C13.2642 14.9042 14.2204 14.4836 14.0833 13.767C13.4718 10.5718 13.6548 8.15393 14.6663 6.26474C15.6765 8.15168 15.8601 10.5661 15.2512 13.7567C15.1146 14.4728 16.0698 14.8932 16.5057 14.309C17.7944 12.5807 19.4731 11.2783 21.1587 10.6635C20.5317 12.3062 19.2133 13.7848 17.0914 15.2441C16.4982 15.652 16.8638 16.6119 17.5783 16.5211C18.941 16.3485 20.7628 16.3502 22.2867 17.159C20.8275 17.8355 18.9627 17.9725 17.27 17.4865C16.7305 17.331 16.2261 17.8675 16.4128 18.3964C16.624 18.995 16.6823 19.5025 16.6818 19.8816C16.1167 19.5666 15.6306 19.0784 15.2729 18.4564C15.0084 17.9963 14.3183 17.9962 14.0538 18.4564C13.6948 19.0805 13.184 19.5681 12.5738 19.8803C12.6034 19.4896 12.6916 18.9842 12.9104 18.4145C13.1142 17.8838 12.6103 17.3326 12.0636 17.4854C10.3219 17.9749 8.47029 17.842 7.00115 17.1574C8.53152 16.3431 10.3745 16.3473 11.7549 16.5267Z" fill="black"/>
</g>
<defs>
<clipPath id="clip0_809_5056">
<rect width="48" height="48" fill="white" transform="translate(0.5)"/>
</clipPath>
</defs>
</svg>
