<svg width="33" height="33" viewBox="0 0 33 33" fill="none" xmlns="http://www.w3.org/2000/svg">
<g clip-path="url(#clip0_2152_8876)">
<path d="M30.8747 28.1027L30.2497 10.6027C30.2126 9.56386 29.3891 8.75005 28.3751 8.75005H23.0625V7.06249C23.0625 3.44393 20.1186 0.5 16.5 0.5C12.8815 0.5 9.93748 3.44393 9.93748 7.06249V8.75005H4.62493C3.61087 8.75005 2.7875 9.56386 2.75037 10.6027L2.12538 28.1027C2.12513 28.1101 2.125 28.1176 2.125 28.125V30.625C2.125 31.6589 2.96612 32.5 4 32.5H29.0002C30.0341 32.5 30.8752 31.6589 30.8752 30.625V28.125C30.8751 28.1176 30.8749 28.1101 30.8747 28.1027ZM11.1875 7.06249C11.1875 4.13318 13.5707 1.75 16.5 1.75C19.4293 1.75 21.8125 4.13318 21.8125 7.06249V11.8751C21.8125 12.2197 21.5321 12.5001 21.1875 12.5001C20.8428 12.5001 20.5625 12.2197 20.5625 11.8751V7.06249C20.5625 4.82243 18.74 2.99999 16.5 2.99999C14.2599 2.99999 12.4375 4.82243 12.4375 7.06249V11.8751C12.4375 12.2197 12.1571 12.5001 11.8125 12.5001C11.4679 12.5001 11.1875 12.2197 11.1875 11.8751V7.06249ZM19.3125 8.75005H13.6875V7.06249C13.6875 5.51168 14.9492 4.24999 16.5 4.24999C18.0508 4.24999 19.3125 5.51168 19.3125 7.06249V8.75005H19.3125ZM29.6251 30.625C29.6251 30.9696 29.3447 31.25 29.0001 31.25H3.99993C3.65531 31.25 3.37494 30.9696 3.37494 30.625V28.1363L3.82181 15.6252H5.77912C6.1243 15.6252 6.40412 15.3453 6.40412 15.0002C6.40412 14.655 6.1243 14.3752 5.77912 14.3752H3.86637L3.9995 10.6474C4.0125 10.2844 4.28718 10 4.62487 10H9.93748V11.8751C9.93748 12.909 10.7786 13.7501 11.8125 13.7501C12.8464 13.7501 13.6875 12.909 13.6875 11.8751V10H19.3125V11.8751C19.3125 12.909 20.1536 13.7501 21.1875 13.7501C22.2213 13.7501 23.0625 12.909 23.0625 11.8751V10H28.375C28.7128 10 28.9874 10.2844 29.0004 10.6474L29.625 28.1363V30.625H29.6251Z" fill="black"/>
<path d="M25.0331 22.7141C23.9819 21.808 22.6772 21.2706 21.3191 21.1737C22.3273 20.1146 22.9417 18.7255 23.0517 17.2429C23.0651 17.0616 22.9989 16.8834 22.8704 16.7548C22.7418 16.6262 22.564 16.5601 22.3822 16.5734C20.9241 16.6815 19.5561 17.2773 18.5037 18.256C18.5217 18.0052 18.5313 17.7531 18.5313 17.5C18.5313 15.5595 17.9963 13.6633 17.0249 12.1607C16.9098 11.9826 16.7122 11.875 16.5001 11.875C16.2879 11.875 16.0903 11.9826 15.9752 12.1607C15.0037 13.6632 14.4688 15.5595 14.4688 17.4999C14.4688 17.753 14.4783 18.0052 14.4963 18.2559C13.4439 17.2773 12.0759 16.6814 10.6179 16.5734C10.4363 16.5594 10.2583 16.6261 10.1297 16.7547C10.0011 16.8833 9.93487 17.0616 9.94837 17.2429C10.0583 18.7254 10.6728 20.1144 11.6809 21.1736C10.3229 21.2706 9.01819 21.8079 7.96694 22.7141C7.82919 22.8328 7.75 23.0056 7.75 23.1875C7.75 23.3693 7.82919 23.5422 7.96694 23.6609C9.01656 24.5657 10.3189 25.1028 11.6748 25.2009C11.3169 25.6929 11.0621 26.2881 10.9314 26.9587C10.8718 27.2647 11.0469 27.5679 11.3417 27.6693C11.8425 27.8414 12.3414 27.927 12.8223 27.927C13.4783 27.927 14.1006 27.7677 14.6475 27.452C15.1431 27.1659 15.5574 26.7609 15.8751 26.2647V28.75C15.8751 29.0952 16.1549 29.375 16.5001 29.375C16.8453 29.375 17.1251 29.0952 17.1251 28.75V26.2647C17.4428 26.7608 17.8571 27.1657 18.3527 27.4519C18.8996 27.7677 19.5218 27.9269 20.1778 27.9269C20.6586 27.9269 21.1577 27.8414 21.6584 27.6692C21.9532 27.5678 22.1283 27.2646 22.0687 26.9586C21.938 26.288 21.6831 25.6929 21.3253 25.2009C22.6812 25.1028 23.9835 24.5657 25.0332 23.6609C25.1709 23.5422 25.2501 23.3694 25.2501 23.1875C25.2501 23.0056 25.1709 22.8329 25.0331 22.7141ZM21.6858 17.9393C21.4709 18.8722 21.0032 19.7267 20.3292 20.4007C19.6551 21.0747 18.8006 21.5425 17.8676 21.7574C18.0826 20.8246 18.5503 19.9699 19.2243 19.2959C19.8983 18.6219 20.7529 18.1542 21.6858 17.9393ZM16.5001 13.8009C17.008 14.9141 17.2813 16.193 17.2813 17.4999C17.2813 18.8068 17.008 20.0858 16.5001 21.1989C15.9921 20.0858 15.7188 18.8068 15.7188 17.4999C15.7188 16.1931 15.9921 14.9141 16.5001 13.8009ZM13.7758 19.2959C14.4498 19.9699 14.9175 20.8246 15.1324 21.7574C14.1996 21.5425 13.3449 21.0748 12.6709 20.4008C11.9969 19.7267 11.5292 18.8722 11.3142 17.9393C12.2472 18.1542 13.1017 18.6219 13.7758 19.2959ZM12.125 22.4062C13.0781 22.4062 14.0132 22.6798 14.8249 23.1875C14.0132 23.6952 13.0782 23.9688 12.125 23.9688C11.1718 23.9688 10.2368 23.6952 9.42519 23.1875C10.2369 22.6799 11.1719 22.4062 12.125 22.4062ZM14.0224 26.3694C13.4449 26.7029 12.8328 26.7237 12.3143 26.6339C12.4959 26.1401 12.82 25.6203 13.3974 25.2869C13.9749 24.9534 14.5871 24.9327 15.1056 25.0224C14.924 25.5162 14.5999 26.0361 14.0224 26.3694ZM18.9776 26.3694C18.4002 26.0361 18.0761 25.5162 17.8945 25.0224C18.4129 24.9327 19.0252 24.9535 19.6026 25.2869C20.18 25.6203 20.5041 26.1401 20.6857 26.6339C20.1674 26.7236 19.555 26.7028 18.9776 26.3694ZM20.8751 23.9688C19.9219 23.9688 18.9869 23.6952 18.1752 23.1875C18.9868 22.6798 19.9219 22.4062 20.8751 22.4062C21.8282 22.4062 22.7633 22.6798 23.5749 23.1875C22.7633 23.6952 21.8282 23.9688 20.8751 23.9688Z" fill="black"/>
<path d="M8.58984 15.625H8.59028C8.93547 15.625 9.21509 15.3452 9.21509 15C9.21509 14.6548 8.93503 14.375 8.58984 14.375C8.24466 14.375 7.96484 14.6548 7.96484 15C7.96484 15.3452 8.24466 15.625 8.58984 15.625Z" fill="black"/>
</g>
<defs>
<clipPath id="clip0_2152_8876">
<rect width="32" height="32" fill="white" transform="translate(0.5 0.5)"/>
</clipPath>
</defs>
</svg>
