<svg width="48" height="48" viewBox="0 0 48 48" fill="none" xmlns="http://www.w3.org/2000/svg">
<g clip-path="url(#clip0_809_5062)">
<mask id="mask0_809_5062" style="mask-type:luminance" maskUnits="userSpaceOnUse" x="0" y="0" width="48" height="48">
<path d="M0 3.8147e-06H48V48H0V3.8147e-06Z" fill="white"/>
</mask>
<g mask="url(#mask0_809_5062)">
<path d="M38.0156 42.5617V39.5313H38.9627C39.4857 39.5313 39.9098 39.1072 39.9098 38.5842V35.175C39.9098 34.6519 39.4857 34.2279 38.9627 34.2279H38.0156V31.1974" stroke="black" stroke-width="1.40625" stroke-miterlimit="10" stroke-linecap="round" stroke-linejoin="round"/>
<path d="M34.2291 31.1974V34.2279H33.282C32.759 34.2279 32.335 34.6519 32.335 35.1749V38.5842C32.335 39.1073 32.759 39.5312 33.282 39.5312H34.2291V42.5617" stroke="black" stroke-width="1.40625" stroke-miterlimit="10" stroke-linecap="round" stroke-linejoin="round"/>
<path d="M16.1753 31.1972H6.76465V42.5616H29.3968" stroke="black" stroke-width="1.40625" stroke-miterlimit="10" stroke-linecap="round" stroke-linejoin="round"/>
<path d="M19.457 31.1972H41.6158C44.7536 31.1972 47.298 33.7416 47.298 36.8794C47.298 38.4487 46.6623 39.8691 45.6339 40.8975C44.6055 41.9259 43.1842 42.5616 41.6158 42.5616H32.6786" stroke="black" stroke-width="1.40625" stroke-miterlimit="10" stroke-linecap="round" stroke-linejoin="round"/>
<path d="M3.73359 41.6147H0.703125V32.1445H3.73359" stroke="black" stroke-width="1.40625" stroke-miterlimit="10" stroke-linecap="round" stroke-linejoin="round"/>
<path d="M6.76387 42.5618H3.7334V31.1975H6.76387V42.5618Z" stroke="black" stroke-width="1.40625" stroke-miterlimit="10" stroke-linecap="round" stroke-linejoin="round"/>
<path d="M30.5342 31.1974L26.7461 42.5617" stroke="black" stroke-width="1.40625" stroke-miterlimit="10" stroke-linecap="round" stroke-linejoin="round"/>
<path d="M25.539 31.1974L21.751 42.5617" stroke="black" stroke-width="1.40625" stroke-miterlimit="10" stroke-linecap="round" stroke-linejoin="round"/>
<path d="M20.5439 31.1974L16.7559 42.5617" stroke="black" stroke-width="1.40625" stroke-miterlimit="10" stroke-linecap="round" stroke-linejoin="round"/>
<path d="M15.5478 31.1974L11.7598 42.5617" stroke="black" stroke-width="1.40625" stroke-miterlimit="10" stroke-linecap="round" stroke-linejoin="round"/>
<path d="M10.5528 31.1974L6.76465 42.5617" stroke="black" stroke-width="1.40625" stroke-miterlimit="10" stroke-linecap="round" stroke-linejoin="round"/>
<path d="M30.0614 9.4158C30.0614 9.4158 31.8698 11.5823 31.8698 14.5645C31.8698 15.041 31.8233 15.5028 31.7456 15.943C31.9251 15.7086 32.1219 15.4795 32.3398 15.2615C34.2677 13.3337 36.8803 13.1455 36.8803 13.1455C36.8803 13.1455 36.6922 15.7582 34.7644 17.686C34.3975 18.0528 34.0001 18.3622 33.5969 18.6232C33.7281 18.6134 33.861 18.6082 33.9956 18.6082C36.1685 18.6082 37.7468 19.9645 37.7468 19.9645C37.7468 19.9645 36.1685 21.3207 33.9956 21.3207C33.7389 21.3207 33.4881 21.3012 33.245 21.2679C33.738 22.2342 33.5274 23.4304 33.5274 23.4304C33.5274 23.4304 32.0208 23.5061 31.0409 22.5263C30.5205 22.0059 30.2121 21.3025 30.0614 20.8687C29.9108 21.3025 29.6023 22.0059 29.0819 22.5263C28.102 23.5061 26.5954 23.4304 26.5954 23.4304C26.5954 23.4304 26.3848 22.2342 26.8779 21.2679C26.6348 21.3012 26.384 21.3207 26.1272 21.3207C23.9544 21.3207 22.376 19.9645 22.376 19.9645C22.376 19.9645 23.9544 18.6082 26.1272 18.6082C26.2618 18.6082 26.3948 18.6134 26.5259 18.6232C26.1227 18.3622 25.7253 18.0528 25.3584 17.686C23.4307 15.7582 23.2425 13.1455 23.2425 13.1455C23.2425 13.1455 25.8551 13.3337 27.783 15.2615C28.001 15.4795 28.1978 15.7086 28.3772 15.943C28.2996 15.5028 28.2531 15.041 28.2531 14.5645C28.2531 11.5823 30.0614 9.4158 30.0614 9.4158Z" stroke="black" stroke-width="1.40625" stroke-miterlimit="10" stroke-linecap="round" stroke-linejoin="round"/>
<path d="M30.0615 20.9695V24.1895" stroke="black" stroke-width="1.40625" stroke-miterlimit="10" stroke-linecap="round" stroke-linejoin="round"/>
<path d="M21.7582 9.04409C23.831 6.82503 26.7841 5.43847 30.0607 5.43847C36.3372 5.43847 41.425 10.5263 41.425 16.8028C41.425 19.0575 40.7679 21.1594 39.6354 22.9275L41.425 28.1672L36.1854 26.3766C34.4182 27.51 32.3163 28.1672 30.0607 28.1672C23.7841 28.1672 18.6963 23.0794 18.6963 16.8028C18.6963 14.9803 19.1257 13.2582 19.8888 11.7319" stroke="black" stroke-width="1.40625" stroke-miterlimit="10" stroke-linecap="round" stroke-linejoin="round"/>
<path d="M9.60516 20.9222C9.60516 19.2485 8.24841 17.8917 6.57469 17.8917C6.10931 17.8917 5.66869 17.9968 5.27475 18.1842C5.07506 17.522 4.461 17.0393 3.73359 17.0393C2.84447 17.0393 2.12362 17.7601 2.12362 18.6493C2.12362 18.7721 2.13863 18.8913 2.16478 19.0063C1.32263 19.2376 0.703125 20.0066 0.703125 20.9222C0.703125 21.7511 1.21059 22.4611 1.93172 22.7598C1.52719 23.1237 1.27134 23.6497 1.27134 24.2367C1.27134 25.2222 1.98881 26.0381 2.9295 26.1958C2.93916 27.2859 3.825 28.1669 4.91737 28.1669C6.00975 28.1669 6.89569 27.2859 6.90525 26.1958C7.84594 26.0381 8.5635 25.2222 8.5635 24.2367C8.5635 23.9252 8.48981 23.6315 8.36203 23.369C9.1155 22.8176 9.60516 21.9273 9.60516 20.9222Z" stroke="black" stroke-width="1.40625" stroke-miterlimit="10" stroke-linecap="round" stroke-linejoin="round"/>
<path d="M15.0975 9.98401C15.0975 8.93795 14.2495 8.08988 13.2034 8.08988C12.7551 8.08988 12.3438 8.24654 12.0194 8.50698C11.7361 7.81792 11.0588 7.33229 10.2676 7.33229C9.22163 7.33229 8.37356 8.18035 8.37356 9.22632C8.37356 9.31238 8.38134 9.39638 8.39241 9.47935C7.32234 9.94707 6.57422 11.0143 6.57422 12.2569C6.57422 13.9306 7.93106 15.2874 9.60469 15.2874C10.4075 15.2874 11.1367 14.9747 11.6789 14.4653C11.8333 14.5059 11.9946 14.5298 12.1617 14.5298C13.2078 14.5298 14.0558 13.6817 14.0558 12.6356C14.0558 12.3215 13.978 12.0259 13.8427 11.7651C14.5737 11.5026 15.0975 10.8054 15.0975 9.98401Z" stroke="black" stroke-width="1.40625" stroke-miterlimit="10" stroke-linecap="round" stroke-linejoin="round"/>
</g>
</g>
<defs>
<clipPath id="clip0_809_5062">
<rect width="48" height="48" fill="white"/>
</clipPath>
</defs>
</svg>
