<svg width="49" height="48" viewBox="0 0 49 48" fill="none" xmlns="http://www.w3.org/2000/svg">
<g clip-path="url(#clip0_809_5011)">
<mask id="mask0_809_5011" style="mask-type:luminance" maskUnits="userSpaceOnUse" x="0" y="0" width="49" height="48">
<path d="M0.501953 3.8147e-06H48.5019V48H0.501953V3.8147e-06Z" fill="white"/>
</mask>
<g mask="url(#mask0_809_5011)">
<path d="M3.75791 41.864L3.58073 45.3056C3.52448 46.3884 4.38791 47.2969 5.47166 47.2969H40.4123" stroke="black" stroke-width="1.40625" stroke-miterlimit="10" stroke-linecap="round" stroke-linejoin="round"/>
<path d="M5.51199 7.70906L3.9248 38.5866" stroke="black" stroke-width="1.40625" stroke-miterlimit="10" stroke-linecap="round" stroke-linejoin="round"/>
<path d="M44.0692 18.9656L45.423 45.3056C45.4792 46.3884 44.6158 47.2968 43.5321 47.2968H40.322C39.2384 47.2968 38.3749 46.3884 38.4303 45.3056L40.3634 7.71091" stroke="black" stroke-width="1.40625" stroke-miterlimit="10" stroke-linecap="round" stroke-linejoin="round"/>
<path d="M43.8999 15.6881L43.4902 7.70903" stroke="black" stroke-width="1.40625" stroke-miterlimit="10" stroke-linecap="round" stroke-linejoin="round"/>
<path d="M43.4321 7.71112H40.4207C39.8977 7.71112 39.4736 7.28718 39.4736 6.76406V1.65018C39.4736 1.12715 39.8977 0.703122 40.4207 0.703122H43.4321C43.9552 0.703122 44.3792 1.12715 44.3792 1.65018V6.76406C44.3792 7.28718 43.9552 7.71112 43.4321 7.71112Z" stroke="black" stroke-width="1.40625" stroke-miterlimit="10" stroke-linecap="round" stroke-linejoin="round"/>
<path d="M40.4207 0.703122H12.4739H5.57011C5.04708 0.703122 4.62305 1.12706 4.62305 1.65018V6.76406C4.62305 7.28709 5.04708 7.71112 5.57011 7.71112H40.4207" stroke="black" stroke-width="1.40625" stroke-miterlimit="10" stroke-linecap="round" stroke-linejoin="round"/>
<path d="M41.9277 38.3001V47.2021" stroke="black" stroke-width="1.40625" stroke-miterlimit="10" stroke-linecap="round" stroke-linejoin="round"/>
<path d="M13.7639 15.5653C15.8443 13.244 18.8658 11.7834 22.2286 11.7834C28.5043 11.7834 33.593 16.8712 33.593 23.1478C33.593 29.4243 28.5043 34.5122 22.2286 34.5122C15.9521 34.5122 10.8643 29.4243 10.8643 23.1478C10.8643 21.4106 11.2543 19.7653 11.9508 18.2925" stroke="black" stroke-width="1.40625" stroke-miterlimit="10" stroke-linecap="round" stroke-linejoin="round"/>
<path d="M22.2284 15.7608C22.2284 15.7608 20.4201 17.9273 20.4201 20.9096C20.4201 21.386 20.4667 21.8479 20.5442 22.288C20.3647 22.0536 20.168 21.8246 19.95 21.6066C18.0222 19.6787 15.4095 19.4906 15.4095 19.4906C15.4095 19.4906 15.5977 22.1033 17.5255 24.0311C17.8923 24.3978 18.2898 24.7072 18.6929 24.9683C18.5617 24.9585 18.4288 24.9532 18.2942 24.9532C16.1213 24.9532 14.543 26.3095 14.543 26.3095C14.543 26.3095 16.1213 27.6658 18.2942 27.6658C18.551 27.6658 18.8017 27.6463 19.0448 27.6129C18.5518 28.5793 18.7625 29.7755 18.7625 29.7755C18.7625 29.7755 20.269 29.8512 21.2489 28.8713C21.7693 28.3509 22.0777 27.6475 22.2284 27.2137C22.3791 27.6475 22.6875 28.3509 23.2079 28.8713C24.1879 29.8512 25.6944 29.7755 25.6944 29.7755C25.6944 29.7755 25.905 28.5793 25.412 27.6129C25.6551 27.6463 25.9058 27.6658 26.1626 27.6658C28.3355 27.6658 29.9138 26.3095 29.9138 26.3095C29.9138 26.3095 28.3355 24.9532 26.1626 24.9532C26.0281 24.9532 25.8951 24.9585 25.7639 24.9683C26.1671 24.7072 26.5645 24.3978 26.9314 24.0311C28.8592 22.1033 29.0474 19.4906 29.0474 19.4906C29.0474 19.4906 26.4347 19.6787 24.5068 21.6066C24.2889 21.8246 24.0921 22.0536 23.9127 22.288C23.9902 21.8479 24.0367 21.386 24.0367 20.9096C24.0367 17.9273 22.2284 15.7608 22.2284 15.7608Z" stroke="black" stroke-width="1.40625" stroke-miterlimit="10" stroke-linecap="round" stroke-linejoin="round"/>
<path d="M22.2285 27.3146V30.5345" stroke="black" stroke-width="1.40625" stroke-miterlimit="10" stroke-linecap="round" stroke-linejoin="round"/>
<path d="M30.7525 41.6147H13.7061V38.5842H30.7525V41.6147Z" stroke="black" stroke-width="1.40625" stroke-miterlimit="10" stroke-linecap="round" stroke-linejoin="round"/>
</g>
</g>
<defs>
<clipPath id="clip0_809_5011">
<rect width="48" height="48" fill="white" transform="translate(0.5)"/>
</clipPath>
</defs>
</svg>
