<svg width="44" height="44" viewBox="0 0 44 44" fill="none" xmlns="http://www.w3.org/2000/svg">
<rect width="44" height="44" rx="22" fill="#F4F4F4"/>
<path d="M11.4375 12.25H12.9387C13.4908 12.25 13.974 12.6212 14.1163 13.1547L14.5314 14.7114M17.125 24.4375C15.3301 24.4375 13.875 25.8926 13.875 27.6875H30.9375M17.125 24.4375H29.2781C30.4926 21.9451 31.5525 19.3635 32.4452 16.7052C27.2867 15.3878 21.8814 14.6875 16.3125 14.6875C15.7169 14.6875 15.1232 14.6955 14.5314 14.7114M17.125 24.4375L14.5314 14.7114M15.5 30.9375C15.5 31.3862 15.1362 31.75 14.6875 31.75C14.2388 31.75 13.875 31.3862 13.875 30.9375C13.875 30.4888 14.2388 30.125 14.6875 30.125C15.1362 30.125 15.5 30.4888 15.5 30.9375ZM29.3125 30.9375C29.3125 31.3862 28.9487 31.75 28.5 31.75C28.0513 31.75 27.6875 31.3862 27.6875 30.9375C27.6875 30.4888 28.0513 30.125 28.5 30.125C28.9487 30.125 29.3125 30.4888 29.3125 30.9375Z" stroke="#0F172A" stroke-width="1.5" stroke-linecap="round" stroke-linejoin="round"/>
</svg>
