<svg width="49" height="48" viewBox="0 0 49 48" fill="none" xmlns="http://www.w3.org/2000/svg">
<path d="M20.7279 31.4334H15.708" stroke="black" stroke-width="1.40625" stroke-miterlimit="10" stroke-linecap="round" stroke-linejoin="round"/>
<path d="M15.8234 43.3209L15.9056 46.0667C15.9261 46.752 16.4865 47.2969 17.1707 47.2969H19.3613C20.0455 47.2969 20.6059 46.752 20.6264 46.0667L21.0647 31.4334L21.8728 8.87484C21.9095 7.85147 21.4651 6.87009 20.6724 6.22378L19.8591 5.56069C19.7388 5.46253 19.6688 5.31525 19.6688 5.15972V1.34278C19.6688 0.989531 19.3831 0.703125 19.0305 0.703125H17.5006C17.1481 0.703125 16.8622 0.989531 16.8622 1.34278V5.15981C16.8622 5.31534 16.7923 5.46262 16.6719 5.56078L15.8587 6.22378C15.066 6.87009 14.6216 7.85156 14.6584 8.87503L15.4673 31.4334L15.726 40.0706" stroke="black" stroke-width="1.40625" stroke-miterlimit="10" stroke-linecap="round" stroke-linejoin="round"/>
<path d="M15.2461 21.3125L21.1419 26.8482" stroke="black" stroke-width="1.40625" stroke-miterlimit="10" stroke-linecap="round" stroke-linejoin="round"/>
<path d="M14.8926 10.8602L21.5153 17.0784" stroke="black" stroke-width="1.40625" stroke-miterlimit="10" stroke-linecap="round" stroke-linejoin="round"/>
<path d="M33.4062 31.4334H28.0312" stroke="black" stroke-width="1.40625" stroke-miterlimit="10" stroke-linecap="round" stroke-linejoin="round"/>
<path d="M34.2935 10.2185L34.3415 8.87484C34.3782 7.85147 33.9338 6.87009 33.1412 6.22378L32.3279 5.56069C32.2075 5.46253 32.1376 5.31525 32.1376 5.15972V1.34278C32.1376 0.989531 31.8518 0.703125 31.4992 0.703125H29.9693C29.6168 0.703125 29.331 0.989531 29.331 1.34278V5.15981C29.331 5.31534 29.2611 5.46262 29.1407 5.56078L28.3275 6.22378C27.5347 6.87009 27.0904 7.85156 27.1271 8.87503L27.9361 31.4334L28.3744 46.0667C28.3949 46.752 28.9552 47.2969 29.6394 47.2969H31.8301C32.5143 47.2969 33.0746 46.752 33.0951 46.0667L33.5334 31.4334L34.1759 13.5" stroke="black" stroke-width="1.40625" stroke-miterlimit="10" stroke-linecap="round" stroke-linejoin="round"/>
<path d="M27.7148 21.3125L33.6107 26.8482" stroke="black" stroke-width="1.40625" stroke-miterlimit="10" stroke-linecap="round" stroke-linejoin="round"/>
<path d="M27.3613 10.8602L33.984 17.0784" stroke="black" stroke-width="1.40625" stroke-miterlimit="10" stroke-linecap="round" stroke-linejoin="round"/>
</svg>
