<svg width="33" height="33" viewBox="0 0 33 33" fill="none" xmlns="http://www.w3.org/2000/svg">
<g clip-path="url(#clip0_2156_4253)">
<path d="M8.79878 16.9878C9.0034 17.1923 9.22003 17.391 9.44759 17.5828C7.51003 18.0461 6.17265 18.8546 6.1039 18.8966C5.70646 19.1401 5.7059 19.7188 6.10384 19.9627C6.21271 20.0293 8.80728 21.5955 12.0496 21.5955C12.5795 21.5955 13.1235 21.5523 13.6741 21.4678V24.8086C13.6741 25.1538 13.954 25.4336 14.2991 25.4336C14.6443 25.4336 14.9241 25.1538 14.9241 24.8086V21.4678C15.4748 21.5523 16.0189 21.5955 16.5487 21.5955C19.7911 21.5955 22.3856 20.0293 22.4944 19.9626C22.6799 19.8491 22.793 19.6471 22.793 19.4296C22.793 19.2121 22.6799 19.0103 22.4943 18.8967C22.4257 18.8547 21.0917 18.0481 19.1577 17.5845C19.386 17.3921 19.6033 17.193 19.8085 16.9878C22.1013 14.695 22.8285 11.753 22.8583 11.6289C22.9673 11.1751 22.5573 10.766 22.1045 10.8751C21.9804 10.905 19.0383 11.6321 16.7456 13.9248C16.6493 14.0211 16.5545 14.1199 16.4611 14.2211C16.4666 14.0835 16.4695 13.9465 16.4695 13.8103C16.4695 10.568 14.9033 7.97352 14.8367 7.86465C14.5932 7.46734 14.0145 7.46665 13.7707 7.86465C13.704 7.97346 12.1378 10.568 12.1378 13.8103C12.1378 13.9466 12.1406 14.0835 12.1462 14.2211C12.0528 14.1199 11.958 14.0211 11.8616 13.9248C9.5689 11.6321 6.6269 10.905 6.50278 10.8751C6.05071 10.7661 5.63971 11.1742 5.74903 11.6289C5.77884 11.753 6.50603 14.6948 8.79878 16.9878ZM10.9778 14.8086C11.6035 15.4343 12.1629 16.1838 12.6405 17.0365C12.7953 17.3129 13.1324 17.4297 13.425 17.3084C13.7176 17.1872 13.8733 16.8663 13.7874 16.5615C13.5223 15.621 13.3878 14.6953 13.3878 13.8103C13.3878 12.1047 13.8913 10.5707 14.3046 9.59865C14.7176 10.5682 15.2195 12.0986 15.2195 13.8103C15.2195 14.6953 15.0851 15.621 14.8199 16.5615C14.734 16.8663 14.8896 17.1872 15.1823 17.3084C15.4749 17.4297 15.812 17.3128 15.9668 17.0365C16.4445 16.1838 17.0039 15.4343 17.6295 14.8086C18.8356 13.6025 20.2762 12.8738 21.2559 12.4788C20.8623 13.4563 20.135 14.8934 18.9246 16.1038C18.4458 16.5825 17.8901 17.0258 17.2731 17.4211C17.0499 17.5641 16.9411 17.8323 17.0018 18.0904C17.0625 18.3485 17.2794 18.5401 17.543 18.5687C18.8403 18.7091 19.9793 19.098 20.7585 19.4293C19.7861 19.8426 18.253 20.3453 16.5486 20.3453C15.381 20.3453 14.4779 20.1063 14.3653 20.0944C14.3217 20.0898 14.2795 20.0895 14.2328 20.0944C14.1043 20.108 13.2352 20.3453 12.0495 20.3453C10.3439 20.3453 8.80984 19.8419 7.83771 19.4286C8.61609 19.097 9.75615 18.7083 11.0625 18.5678C11.3262 18.5395 11.5432 18.3478 11.604 18.0898C11.6648 17.8316 11.5561 17.5633 11.3328 17.4202C10.7165 17.0253 10.1612 16.5823 9.68253 16.1038C8.47646 14.8976 7.74778 13.457 7.35271 12.4775C8.3304 12.871 9.76746 13.5983 10.9778 14.8086Z" fill="black"/>
<path d="M30.1868 28.3733C30.1005 28.2529 28.3041 25.7828 25.8321 25.1313C25.8987 24.5575 25.9233 23.9781 25.9048 23.4018L25.4461 9.18087C25.3922 7.50419 24.9668 5.82363 24.2156 4.32081L24.1128 4.11512V1.125C24.1128 0.779813 23.833 0.5 23.4878 0.5H5.11953C4.7744 0.5 4.49452 0.779813 4.49452 1.125V4.11519L4.39165 4.32087C3.6409 5.82231 3.21553 7.50281 3.16134 9.18056L2.70253 23.4019C2.64171 25.2898 3.04477 27.1799 3.8669 28.8796V31.875C3.8669 32.2201 4.14678 32.5 4.4919 32.5C14.3251 32.4966 12.7332 32.5 24.6582 32.5C27.7169 32.5 30.0873 29.24 30.1867 29.1012C30.3417 28.8857 30.3427 28.59 30.1868 28.3733ZM21.0121 29.3622H28.3075C27.4773 30.1946 26.1337 31.25 24.6583 31.25C23.1892 31.25 21.8443 30.1946 21.0121 29.3622ZM21.0091 28.1122C21.8393 27.2799 23.1828 26.2245 24.6583 26.2245C26.1273 26.2245 27.4721 27.2798 28.3045 28.1122H21.0091ZM5.74453 1.75H22.8628V3.63775H5.74453V1.75ZM3.95196 23.4422L4.41078 9.22081C4.45896 7.72506 4.83765 6.22694 5.50596 4.88775H23.1015C23.77 6.22819 24.1488 7.72631 24.1967 9.22106L24.6555 23.4419C24.672 23.9529 24.6503 24.4667 24.5917 24.9756C22.0326 25.0151 19.9667 27.3184 19.33 28.1122H4.88696C4.22328 26.6526 3.90021 25.0464 3.95196 23.4422ZM5.1169 31.25V29.3622H19.33C19.654 29.7662 20.3482 30.5613 21.2893 31.25H5.1169Z" fill="black"/>
</g>
<defs>
<clipPath id="clip0_2156_4253">
<rect width="32" height="32" fill="white" transform="translate(0.5 0.5)"/>
</clipPath>
</defs>
</svg>
