<svg width="48" height="48" viewBox="0 0 48 48" fill="none" xmlns="http://www.w3.org/2000/svg">
<g clip-path="url(#clip0_809_4965)">
<path d="M21.1454 14.5784C21.029 15.3552 21.1333 15.8816 21.1508 15.9609C21.283 16.3715 21.5631 16.5489 21.9909 16.493C22.7731 16.3141 23.4661 15.9194 24.0108 15.353C24.5295 15.9087 25.1743 16.3013 25.8906 16.488C26.2141 16.5722 26.6128 16.3629 26.7263 16.0471C26.7551 15.9667 26.9369 15.4181 26.8488 14.5777C28.5406 14.7857 30.2536 14.3983 31.5117 13.4863C31.8843 13.1305 31.897 12.7622 31.5495 12.3816C30.687 11.6617 29.5852 11.2293 28.3016 11.0977C29.605 9.87236 30.3786 8.55296 30.652 7.1004C30.7408 6.62761 30.3173 6.19758 29.843 6.28107C28.5118 6.51387 27.1794 7.19658 26.0042 8.22295C26.0979 6.48837 25.8449 4.52847 24.579 2.83704C24.3031 2.46837 23.7333 2.46846 23.4574 2.83704C22.1928 4.52698 21.9387 6.48483 22.032 8.21912C21.0614 7.35617 19.7433 6.505 18.168 6.2777C17.6245 6.28135 17.3616 6.55477 17.3793 7.09797C17.6468 8.54773 18.4193 9.86713 19.7257 11.0947C18.4273 11.2226 17.3162 11.6564 16.4511 12.3828C16.1044 12.7649 16.1185 13.1332 16.4928 13.4879C17.745 14.3878 19.452 14.7745 21.1454 14.5784ZM21.6927 12.5317C22.4059 12.6238 22.7717 11.665 22.1779 11.2591C20.6373 10.2053 19.6399 9.14519 19.1166 7.9894C20.0301 8.3647 21.2556 9.13847 22.4478 10.7332C22.8826 11.3146 23.8335 10.8946 23.6965 10.1816C23.2455 7.83457 23.3453 6.03061 24.0181 4.60719C24.69 6.02884 24.7905 7.83018 24.3412 10.1736C24.2047 10.8861 25.155 11.3061 25.5897 10.7252C26.5145 9.49005 27.6947 8.53578 28.8976 8.02087C28.3687 9.16583 27.3787 10.2148 25.8603 11.2546C25.2678 11.6604 25.6318 12.6167 26.3438 12.5273C27.3171 12.4045 28.592 12.3948 29.7052 12.878C28.6289 13.2894 27.3198 13.348 26.1203 13.0051C25.5827 12.8511 25.0811 13.3858 25.2677 13.9125C25.3827 14.237 25.438 14.5254 25.46 14.7674C25.1299 14.536 24.8438 14.2205 24.6224 13.8371C24.3574 13.3783 23.6744 13.3783 23.4095 13.8371C23.1878 14.2209 22.8892 14.5359 22.5356 14.7658C22.5731 14.521 22.6413 14.2378 22.7598 13.9306C22.9634 13.4026 22.4625 12.8516 21.9175 13.0041C20.6819 13.3498 19.3767 13.2937 18.2946 12.877C19.4148 12.39 20.7057 12.4041 21.6927 12.5317Z" fill="black"/>
<path d="M47.206 46.5993H45.7405C45.7125 43.14 45.714 39.6493 45.7461 36.2114C45.7496 35.8246 45.439 35.5082 45.0522 35.5046C45.05 35.5046 45.0478 35.5046 45.0456 35.5046C44.6619 35.5046 44.349 35.8139 44.3453 36.1985C44.3133 39.6407 44.3117 43.1357 44.3396 46.5994H20.0902V29.8415C20.0902 28.4254 18.9381 27.2735 17.5222 27.2735H9.26896C7.85301 27.2735 6.70095 28.4254 6.70095 29.8415V46.5993H3.65576V24.3175C4.20784 24.1751 4.69398 23.868 5.05995 23.4525C5.5743 24.0365 6.32686 24.4061 7.16441 24.4061C8.00204 24.4061 8.75461 24.0366 9.26896 23.4525C9.78331 24.0365 10.5359 24.4061 11.3734 24.4061C12.2111 24.4061 12.9636 24.0366 13.478 23.4525C13.9923 24.0365 14.7449 24.4061 15.5824 24.4061C16.4201 24.4061 17.1726 24.0366 17.687 23.4525C18.2013 24.0365 18.9539 24.4061 19.7914 24.4061C20.6291 24.4061 21.3816 24.0366 21.896 23.4525C22.4103 24.0365 23.1629 24.4061 24.0005 24.4061C24.838 24.4061 25.5906 24.0366 26.1049 23.4525C26.6194 24.0365 27.3718 24.4061 28.2095 24.4061C29.047 24.4061 29.7996 24.0366 30.3139 23.4525C30.8284 24.0365 31.5808 24.4061 32.4185 24.4061C33.256 24.4061 34.0086 24.0366 34.5229 23.4525C35.0374 24.0365 35.7899 24.4061 36.6275 24.4061C37.465 24.4061 38.2176 24.0366 38.732 23.4525C39.2464 24.0365 39.9989 24.4061 40.8365 24.4061C41.6741 24.4061 42.4266 24.0366 42.941 23.4525C43.3056 23.8665 43.7898 24.1728 44.3395 24.3159C44.3124 26.8554 44.3134 29.4301 44.3452 31.9818C44.35 32.3656 44.6626 32.6735 45.0453 32.6735H45.0543C45.4411 32.6686 45.7506 32.3512 45.7458 31.9644C45.7141 29.4194 45.7131 26.8516 45.7401 24.3189C46.9518 24.009 47.8503 22.908 47.8503 21.6012V17.9861C47.8503 17.9086 47.8364 17.8297 47.8111 17.7566C47.8095 17.7522 47.8086 17.7477 47.807 17.7434L44.7481 9.46456C44.2424 8.09595 42.9224 7.17651 41.4633 7.17651H34.2018C32.6968 2.99673 28.6924 0 24.0006 0C19.3088 0 15.3043 2.99673 13.7993 7.17642H6.53763C5.07853 7.17642 3.75848 8.09595 3.25282 9.46446L2.71064 10.9318C2.40519 11.7584 3.70927 12.2701 4.02453 11.4173L4.5667 9.94996C4.8701 9.12885 5.66208 8.57705 6.53753 8.57705H13.3998C13.2443 9.30674 13.1618 10.0631 13.1618 10.8385C13.1618 13.1907 13.9073 15.4302 15.2859 17.2857H1.85638L2.66124 15.1075C2.9751 14.258 1.66121 13.7725 1.34735 14.622L0.193992 17.7433C0.165697 17.8202 0.150569 17.9042 0.150569 17.9861V21.6012C0.150569 22.906 1.04629 24.0056 2.25503 24.3175V46.5993H0.795093C0.40821 46.5993 0.0947266 46.9128 0.0947266 47.2996C0.0947266 47.6864 0.40821 48 0.795093 48H47.206C47.5929 48 47.9064 47.6864 47.9064 47.2996C47.9064 46.9128 47.5929 46.5993 47.206 46.5993ZM15.5825 23.0053C14.8083 23.0053 14.1784 22.3754 14.1784 21.6012V18.6865H16.9867V21.6012C16.9867 22.3754 16.3568 23.0053 15.5825 23.0053ZM19.7915 23.0053C19.0173 23.0053 18.3874 22.3754 18.3874 21.6012V18.6865H21.1957V21.6012C21.1957 22.3754 20.5658 23.0053 19.7915 23.0053ZM24.0006 23.0053C23.2263 23.0053 22.5965 22.3754 22.5965 21.6012V18.6865H25.4046V21.6012C25.4046 22.3754 24.7748 23.0053 24.0006 23.0053ZM28.2097 23.0053C27.4354 23.0053 26.8055 22.3754 26.8055 21.6012V18.6865H29.6138V21.6012C29.6138 22.3754 28.9839 23.0053 28.2097 23.0053ZM32.4187 23.0053C31.6444 23.0053 31.0145 22.3754 31.0145 21.6012V18.6865H33.8228V21.6012C33.8228 22.3754 33.1929 23.0053 32.4187 23.0053ZM36.6277 23.0053C35.8535 23.0053 35.2235 22.3754 35.2235 21.6012V18.6865H38.0318V21.6012C38.0318 22.3754 37.4019 23.0053 36.6277 23.0053ZM40.8367 23.0053C40.0625 23.0053 39.4325 22.3754 39.4325 21.6012V18.6865H42.2408V21.6012C42.2408 22.3754 41.6109 23.0053 40.8367 23.0053ZM46.4499 21.6012C46.4499 22.3754 45.82 23.0053 45.0458 23.0053C44.2716 23.0053 43.6416 22.3754 43.6416 21.6012V18.6865H46.4499V21.6012ZM41.4635 8.57715C42.3389 8.57715 43.1309 9.12885 43.4343 9.94996L46.1447 17.2858H32.7151C34.0937 15.4304 34.8392 13.1909 34.8392 10.8386C34.8392 10.0632 34.7567 9.30684 34.6012 8.57715H41.4635ZM14.5627 10.8386C14.5627 5.63449 18.7966 1.40073 24.0006 1.40073C29.2045 1.40073 33.4384 5.63449 33.4384 10.8386C33.4384 13.253 32.5366 15.5311 30.8929 17.2858C26.2979 17.2858 21.7031 17.2858 17.1081 17.2858C15.4645 15.5311 14.5627 13.253 14.5627 10.8386ZM12.7777 21.6012C12.7777 22.3754 12.1477 23.0053 11.3735 23.0053C10.5993 23.0053 9.96942 22.3754 9.96942 21.6012V18.6865H12.7777V21.6012ZM8.56859 21.6012C8.56859 22.3754 7.93864 23.0053 7.16441 23.0053C6.39018 23.0053 5.76031 22.3754 5.76031 21.6012V18.6865H8.56859V21.6012ZM1.5513 21.6012V18.6865H4.35958V21.6012C4.35958 22.3754 3.72963 23.0053 2.95539 23.0053C2.18116 23.0053 1.5513 22.3754 1.5513 21.6012ZM8.10168 29.8415C8.10168 29.1978 8.62528 28.6742 9.26896 28.6742H17.5222C18.1658 28.6742 18.6894 29.1978 18.6894 29.8415V46.5993H8.10168V29.8415Z" fill="black"/>
<path d="M38.7318 27.2735H25.8678C24.4519 27.2735 23.2998 28.4254 23.2998 29.8415V37.5144V39.3706C23.2998 40.7866 24.4519 41.9386 25.8678 41.9386H38.7318C40.1477 41.9386 41.2998 40.7866 41.2998 39.3706V37.5144V29.8415C41.2998 28.4254 40.1477 27.2735 38.7318 27.2735ZM24.7005 29.8415C24.7005 29.1978 25.2241 28.6742 25.8678 28.6742H38.7318C39.3754 28.6742 39.899 29.1978 39.899 29.8415V36.814H24.7005V29.8415ZM39.899 39.3705C39.899 40.0141 39.3754 40.5377 38.7318 40.5377H25.8678C25.2241 40.5377 24.7005 40.0141 24.7005 39.3705V38.2147H39.899V39.3705Z" fill="black"/>
</g>
<defs>
<clipPath id="clip0_809_4965">
<rect width="48" height="48" fill="white"/>
</clipPath>
</defs>
</svg>
