<svg width="32" height="33" viewBox="0 0 32 33" fill="none" xmlns="http://www.w3.org/2000/svg">
<path d="M11 21.5C11.0751 21.4997 11.1492 21.4824 11.2167 21.4495C11.2842 21.4166 11.3434 21.369 11.39 21.31C12.2225 20.2091 12.6972 18.8793 12.75 17.5C12.6972 16.1208 12.2225 14.791 11.39 13.69C11.3431 13.6316 11.2838 13.5845 11.2163 13.5521C11.1488 13.5197 11.0749 13.5029 11 13.5029C10.9251 13.5029 10.8512 13.5197 10.7837 13.5521C10.7162 13.5845 10.6569 13.6316 10.61 13.69C9.77752 14.791 9.30283 16.1208 9.25 17.5C9.30283 18.8793 9.77752 20.2091 10.61 21.31C10.6566 21.369 10.7158 21.4166 10.7833 21.4495C10.8508 21.4824 10.9249 21.4997 11 21.5ZM11 14.915C11.4626 15.7003 11.7205 16.5892 11.75 17.5C11.7205 18.4109 11.4626 19.2998 11 20.085C10.5374 19.2998 10.2795 18.4109 10.25 17.5C10.2795 16.5892 10.5374 15.7003 11 14.915Z" fill="black"/>
<path d="M17.4056 17.8848C16.2773 17.8844 15.1798 18.2531 14.2806 18.9348C13.4489 19.6973 12.8346 20.667 12.5006 21.7448C12.4783 21.8209 12.4745 21.9013 12.4894 21.9792C12.5043 22.0572 12.5376 22.1305 12.5865 22.193C12.6353 22.2555 12.6984 22.3055 12.7704 22.3389C12.8424 22.3722 12.9213 22.388 13.0006 22.3848C14.1646 22.323 15.2846 21.9195 16.2206 21.2248C17.0245 20.495 17.6008 19.5488 17.8806 18.4998C17.8977 18.4273 17.8985 18.3519 17.8828 18.2791C17.867 18.2063 17.8353 18.1379 17.7897 18.079C17.7442 18.0201 17.6861 17.972 17.6196 17.9384C17.5532 17.9048 17.48 17.8865 17.4056 17.8848ZM15.5606 20.4598C15.0344 20.8633 14.4216 21.1389 13.7706 21.2648C14.0449 20.6698 14.4379 20.1372 14.9256 19.6998C15.4294 19.3081 16.0249 19.0517 16.6556 18.9548C16.4063 19.5312 16.0323 20.0452 15.5606 20.4598Z" fill="black"/>
<path d="M15.0585 23.5549C14.2744 23.1587 13.3805 23.0355 12.5185 23.2049C12.4505 23.2197 12.3864 23.2486 12.3302 23.2896C12.274 23.3306 12.227 23.3829 12.1921 23.4432C12.1573 23.5034 12.1354 23.5703 12.1279 23.6394C12.1204 23.7086 12.1274 23.7786 12.1485 23.8449C12.4332 24.6765 12.9876 25.3892 13.7235 25.8699C14.5069 26.2684 15.4015 26.3917 16.2635 26.2199C16.331 26.2045 16.3946 26.1752 16.4503 26.134C16.5059 26.0927 16.5523 26.0403 16.5867 25.9801C16.621 25.9199 16.6424 25.8533 16.6496 25.7844C16.6568 25.7155 16.6496 25.6459 16.6285 25.5799C16.3485 24.7472 15.7952 24.0335 15.0585 23.5549ZM14.2235 24.9999C13.8748 24.7852 13.5859 24.4859 13.3835 24.1299C13.7936 24.129 14.1975 24.2304 14.5585 24.4249C14.9058 24.6398 15.193 24.9391 15.3935 25.2949C14.985 25.2959 14.5827 25.1944 14.2235 24.9999Z" fill="black"/>
<path d="M4.11888 18.4998C4.40281 19.5506 4.9845 20.4969 5.79388 21.2248C6.72568 21.9167 7.84005 22.3201 8.99888 22.3848C9.07818 22.388 9.15709 22.3722 9.22911 22.3389C9.30112 22.3055 9.36416 22.2555 9.41301 22.193C9.46187 22.1305 9.49514 22.0572 9.51007 21.9792C9.525 21.9013 9.52117 21.8209 9.49888 21.7448C9.16631 20.6675 8.55379 19.6979 7.72388 18.9348C6.82436 18.2538 5.7271 17.8851 4.59888 17.8848C4.524 17.8858 4.4503 17.9035 4.38322 17.9368C4.31614 17.9701 4.25739 18.0181 4.21131 18.0771C4.16523 18.1361 4.13301 18.2048 4.11701 18.2779C4.10101 18.3511 4.10165 18.4269 4.11888 18.4998ZM7.07388 19.6998C7.56155 20.1372 7.9546 20.6698 8.22888 21.2648C7.57786 21.1389 6.96505 20.8633 6.43888 20.4598C5.96715 20.0472 5.59312 19.5348 5.34388 18.9598C5.97413 19.0552 6.56959 19.3099 7.07388 19.6998Z" fill="black"/>
<path d="M9.50102 23.2049C8.639 23.0355 7.7451 23.1587 6.96102 23.5549C6.22869 24.0272 5.67589 24.7314 5.39102 25.5549C5.36989 25.6209 5.3627 25.6905 5.3699 25.7594C5.3771 25.8283 5.39854 25.8949 5.43286 25.9551C5.46717 26.0153 5.51362 26.0677 5.56925 26.109C5.62488 26.1502 5.68848 26.1795 5.75602 26.1949C6.61797 26.3667 7.51264 26.2434 8.29602 25.8449C9.03196 25.3642 9.58628 24.6515 9.87102 23.8199C9.88815 23.7552 9.89213 23.6877 9.8827 23.6214C9.87327 23.5552 9.85063 23.4915 9.81612 23.4341C9.78162 23.3768 9.73595 23.3269 9.68182 23.2876C9.62769 23.2482 9.56621 23.2201 9.50102 23.2049ZM7.77602 24.9999C7.41679 25.1944 7.01454 25.2959 6.60602 25.2949C6.80648 24.9391 7.09373 24.6398 7.44102 24.4249C7.80257 24.2317 8.20609 24.1304 8.61602 24.1299C8.41363 24.4859 8.12472 24.7852 7.77602 24.9999Z" fill="black"/>
<path d="M11 24.5C10.8674 24.5 10.7402 24.5527 10.6464 24.6464C10.5527 24.7402 10.5 24.8674 10.5 25V27C10.5 27.1326 10.5527 27.2598 10.6464 27.3536C10.7402 27.4473 10.8674 27.5 11 27.5C11.1326 27.5 11.2598 27.4473 11.3536 27.3536C11.4473 27.2598 11.5 27.1326 11.5 27V25C11.5 24.8674 11.4473 24.7402 11.3536 24.6464C11.2598 24.5527 11.1326 24.5 11 24.5Z" fill="black"/>
<path d="M11 23.5C11.2761 23.5 11.5 23.2761 11.5 23C11.5 22.7239 11.2761 22.5 11 22.5C10.7239 22.5 10.5 22.7239 10.5 23C10.5 23.2761 10.7239 23.5 11 23.5Z" fill="black"/>
<path d="M30.5 7.5H24V6.5H26.5C26.6326 6.5 26.7598 6.44732 26.8536 6.35355C26.9473 6.25979 27 6.13261 27 6V2C27 1.86739 26.9473 1.74021 26.8536 1.64645C26.7598 1.55268 26.6326 1.5 26.5 1.5H5.5C5.36739 1.5 5.24021 1.55268 5.14645 1.64645C5.05268 1.74021 5 1.86739 5 2V6C5 6.13261 5.05268 6.25979 5.14645 6.35355C5.24021 6.44732 5.36739 6.5 5.5 6.5H8V7.5H1.5C1.36739 7.5 1.24021 7.55268 1.14645 7.64645C1.05268 7.74021 1 7.86739 1 8V10C1 10.1326 1.05268 10.2598 1.14645 10.3536C1.24021 10.4473 1.36739 10.5 1.5 10.5H2V28.5H1.5C1.36739 28.5 1.24021 28.5527 1.14645 28.6464C1.05268 28.7402 1 28.8674 1 29V31C1 31.1326 1.05268 31.2598 1.14645 31.3536C1.24021 31.4473 1.36739 31.5 1.5 31.5H30.5C30.6326 31.5 30.7598 31.4473 30.8536 31.3536C30.9473 31.2598 31 31.1326 31 31V29C31 28.8674 30.9473 28.7402 30.8536 28.6464C30.7598 28.5527 30.6326 28.5 30.5 28.5H30V10.5H30.5C30.6326 10.5 30.7598 10.4473 30.8536 10.3536C30.9473 10.2598 31 10.1326 31 10V8C31 7.86739 30.9473 7.74021 30.8536 7.64645C30.7598 7.55268 30.6326 7.5 30.5 7.5ZM6 2.5H26V5.5H6V2.5ZM9 6.5H23V7.5H9V6.5ZM30 30.5H2V29.5H30V30.5ZM26.5 28.5H20.5V14.5H26.5V28.5ZM29 28.5H27.5V14C27.5 13.8674 27.4473 13.7402 27.3536 13.6464C27.2598 13.5527 27.1326 13.5 27 13.5H20C19.8674 13.5 19.7402 13.5527 19.6464 13.6464C19.5527 13.7402 19.5 13.8674 19.5 14V28.5H3V10.5H29V28.5ZM30 9.5H2V8.5H30V9.5Z" fill="black"/>
<path d="M22 22C22.2761 22 22.5 21.7761 22.5 21.5C22.5 21.2239 22.2761 21 22 21C21.7239 21 21.5 21.2239 21.5 21.5C21.5 21.7761 21.7239 22 22 22Z" fill="black"/>
<path d="M13 12.5H19C19.1326 12.5 19.2598 12.4473 19.3536 12.3536C19.4473 12.2598 19.5 12.1326 19.5 12C19.5 11.8674 19.4473 11.7402 19.3536 11.6464C19.2598 11.5527 19.1326 11.5 19 11.5H13C12.8674 11.5 12.7402 11.5527 12.6464 11.6464C12.5527 11.7402 12.5 11.8674 12.5 12C12.5 12.1326 12.5527 12.2598 12.6464 12.3536C12.7402 12.4473 12.8674 12.5 13 12.5Z" fill="black"/>
</svg>
