<svg width="32" height="31" viewBox="0 0 32 31" fill="none" xmlns="http://www.w3.org/2000/svg">
<circle cx="16.25" cy="15.5" r="14.6" stroke="black" stroke-width="1.8"/>
<path d="M21 18.0497C21 20.0161 19.7926 21.1666 17.3777 21.5009C17.3777 22.8942 17.4107 24.0605 17.4766 25H15.7088C15.7582 24.0605 15.783 22.934 15.783 21.6204C14.5385 21.6204 13.2775 21.489 12 21.2263L12.408 18.9214C13.4382 19.2638 14.4643 19.4349 15.4863 19.4349C16.4093 19.4349 17.0604 19.3553 17.4396 19.1961C17.8187 19.0289 18.0082 18.7423 18.0082 18.3363C18.0082 17.7869 17.3571 17.2495 16.0549 16.7241C14.8434 16.2305 13.9821 15.7806 13.4712 15.3746C12.6717 14.7377 12.272 13.9654 12.272 13.0578C12.272 12.1741 12.5687 11.4217 13.1621 10.8008C13.7637 10.1718 14.6456 9.77771 15.8077 9.61848C15.8077 7.98638 15.7747 6.78022 15.7088 6H17.4766C17.4107 6.77226 17.3777 7.95056 17.3777 9.53488C18.7459 9.55081 19.7843 9.67421 20.4931 9.90509L20.0728 12.2219C19.1332 11.8636 18.1236 11.6845 17.044 11.6845C15.8407 11.6845 15.239 12.0268 15.239 12.7115C15.239 13.0379 15.3956 13.3126 15.7088 13.5355C15.9643 13.7266 16.467 13.9614 17.217 14.2401C18.4203 14.6939 19.2898 15.1397 19.8255 15.5776C20.6085 16.2305 21 17.0545 21 18.0497Z" fill="black"/>
</svg>
