<svg width="32" height="33" viewBox="0 0 32 33" fill="none" xmlns="http://www.w3.org/2000/svg">
<g clip-path="url(#clip0_2152_8858)">
<path d="M1.775 32.4997C1.775 32.2397 1.74333 32.0514 1.68 31.9347C1.62 31.8147 1.50833 31.7547 1.345 31.7547C1.255 31.7547 1.18 31.7797 1.12 31.8297C1.06333 31.8764 1.01833 31.9547 0.985 32.0647C0.951667 32.1714 0.928333 32.3131 0.915 32.4897C0.901667 32.6631 0.895 32.8764 0.895 33.1297C0.895 33.3997 0.903333 33.6181 0.92 33.7847C0.94 33.9514 0.968333 34.0814 1.005 34.1747C1.045 34.2647 1.09333 34.3264 1.15 34.3597C1.21 34.3897 1.27833 34.4047 1.355 34.4047C1.41833 34.4047 1.47667 34.3947 1.53 34.3747C1.58667 34.3514 1.635 34.3081 1.675 34.2447C1.715 34.1781 1.74667 34.0864 1.77 33.9697C1.79333 33.8497 1.805 33.6931 1.805 33.4997H2.525C2.525 33.6931 2.51 33.8764 2.48 34.0497C2.45 34.2231 2.39333 34.3747 2.31 34.5047C2.23 34.6347 2.115 34.7364 1.965 34.8097C1.81833 34.8831 1.62667 34.9197 1.39 34.9197C1.12 34.9197 0.905 34.8764 0.745 34.7897C0.585 34.7031 0.461667 34.5781 0.375 34.4147C0.291667 34.2514 0.236667 34.0564 0.21 33.8297C0.186667 33.6031 0.175 33.3531 0.175 33.0797C0.175 32.8097 0.186667 32.5614 0.21 32.3347C0.236667 32.1047 0.291667 31.9081 0.375 31.7447C0.461667 31.5814 0.585 31.4547 0.745 31.3647C0.905 31.2714 1.12 31.2247 1.39 31.2247C1.64667 31.2247 1.84833 31.2664 1.995 31.3497C2.145 31.4331 2.25667 31.5397 2.33 31.6697C2.40333 31.7964 2.44833 31.9347 2.465 32.0847C2.485 32.2314 2.495 32.3697 2.495 32.4997H1.775ZM2.91555 32.1747H3.57555V32.5347H3.58555C3.65555 32.4047 3.74055 32.3014 3.84055 32.2247C3.94055 32.1447 4.06221 32.1047 4.20555 32.1047C4.22555 32.1047 4.24555 32.1064 4.26555 32.1097C4.28888 32.1097 4.31055 32.1114 4.33055 32.1147V32.7747C4.29388 32.7714 4.25721 32.7697 4.22055 32.7697C4.18721 32.7664 4.15221 32.7647 4.11555 32.7647C4.05555 32.7647 3.99555 32.7731 3.93555 32.7897C3.87555 32.8064 3.82055 32.8347 3.77055 32.8747C3.72055 32.9114 3.68055 32.9614 3.65055 33.0247C3.62055 33.0847 3.60555 33.1597 3.60555 33.2497V34.8647H2.91555V32.1747ZM5.87559 33.2147C5.87225 33.1114 5.86559 33.0214 5.85559 32.9447C5.84559 32.8647 5.82725 32.7981 5.80059 32.7447C5.77725 32.6881 5.74225 32.6464 5.69559 32.6197C5.65225 32.5897 5.59559 32.5747 5.52559 32.5747C5.45559 32.5747 5.39725 32.5914 5.35059 32.6247C5.30725 32.6547 5.27225 32.6964 5.24559 32.7497C5.21892 32.7997 5.19892 32.8564 5.18559 32.9197C5.17559 32.9831 5.17059 33.0464 5.17059 33.1097V33.2147H5.87559ZM5.17059 33.6247V33.8397C5.17059 33.9197 5.17559 33.9981 5.18559 34.0747C5.19892 34.1481 5.21892 34.2147 5.24559 34.2747C5.27225 34.3314 5.30725 34.3781 5.35059 34.4147C5.39392 34.4481 5.44725 34.4647 5.51059 34.4647C5.62725 34.4647 5.71225 34.4231 5.76559 34.3397C5.81892 34.2564 5.85559 34.1297 5.87559 33.9597H6.49559C6.48225 34.2731 6.39892 34.5114 6.24559 34.6747C6.09225 34.8381 5.85059 34.9197 5.52059 34.9197C5.27059 34.9197 5.07559 34.8781 4.93559 34.7947C4.79559 34.7114 4.69225 34.6014 4.62559 34.4647C4.55892 34.3281 4.51725 34.1747 4.50059 34.0047C4.48725 33.8347 4.48059 33.6647 4.48059 33.4947C4.48059 33.3147 4.49225 33.1414 4.51559 32.9747C4.54225 32.8081 4.59225 32.6597 4.66559 32.5297C4.74225 32.3997 4.85059 32.2964 4.99059 32.2197C5.13059 32.1431 5.31725 32.1047 5.55059 32.1047C5.75059 32.1047 5.91392 32.1381 6.04059 32.2047C6.17059 32.2681 6.27225 32.3597 6.34559 32.4797C6.41892 32.5964 6.46892 32.7397 6.49559 32.9097C6.52225 33.0764 6.53559 33.2631 6.53559 33.4697V33.6247H5.17059ZM8.15004 33.5197C8.10337 33.5564 8.05337 33.5864 8.00004 33.6097C7.94671 33.6297 7.89837 33.6447 7.85504 33.6547C7.71504 33.6847 7.61504 33.7347 7.55504 33.8047C7.49504 33.8747 7.46504 33.9697 7.46504 34.0897C7.46504 34.1931 7.48504 34.2814 7.52504 34.3547C7.56504 34.4281 7.63171 34.4647 7.72504 34.4647C7.77171 34.4647 7.82004 34.4581 7.87004 34.4447C7.92004 34.4281 7.96504 34.4031 8.00504 34.3697C8.04837 34.3364 8.08337 34.2931 8.11004 34.2397C8.13671 34.1864 8.15004 34.1231 8.15004 34.0497V33.5197ZM6.89004 32.9997V32.9347C6.89004 32.7781 6.91504 32.6481 6.96504 32.5447C7.01504 32.4381 7.08171 32.3531 7.16504 32.2897C7.25171 32.2231 7.35171 32.1764 7.46504 32.1497C7.58171 32.1197 7.70504 32.1047 7.83504 32.1047C8.04171 32.1047 8.20837 32.1247 8.33504 32.1647C8.46171 32.2047 8.56004 32.2614 8.63004 32.3347C8.70004 32.4081 8.74671 32.4964 8.77004 32.5997C8.79671 32.6997 8.81004 32.8097 8.81004 32.9297V34.3447C8.81004 34.4714 8.81504 34.5697 8.82504 34.6397C8.83837 34.7097 8.86171 34.7847 8.89504 34.8647H8.23504C8.21171 34.8214 8.19337 34.7764 8.18004 34.7297C8.17004 34.6797 8.16004 34.6314 8.15004 34.5847H8.14004C8.06004 34.7247 7.96671 34.8164 7.86004 34.8597C7.75671 34.8997 7.62171 34.9197 7.45504 34.9197C7.33504 34.9197 7.23337 34.8997 7.15004 34.8597C7.06671 34.8164 7.00004 34.7581 6.95004 34.6847C6.90004 34.6114 6.86337 34.5297 6.84004 34.4397C6.81671 34.3464 6.80504 34.2547 6.80504 34.1647C6.80504 34.0381 6.81837 33.9297 6.84504 33.8397C6.87171 33.7464 6.91171 33.6681 6.96504 33.6047C7.02171 33.5381 7.09171 33.4831 7.17504 33.4397C7.26171 33.3964 7.36504 33.3581 7.48504 33.3247L7.87504 33.2197C7.97837 33.1931 8.05004 33.1564 8.09004 33.1097C8.13004 33.0631 8.15004 32.9947 8.15004 32.9047C8.15004 32.8014 8.12504 32.7214 8.07504 32.6647C8.02837 32.6047 7.94671 32.5747 7.83004 32.5747C7.72337 32.5747 7.64337 32.6064 7.59004 32.6697C7.53671 32.7331 7.51004 32.8181 7.51004 32.9247V32.9997H6.89004ZM9.45227 31.4047H10.1423V32.1747H10.5423V32.6447H10.1423V34.0997C10.1423 34.2064 10.1573 34.2831 10.1873 34.3297C10.2206 34.3731 10.2873 34.3947 10.3873 34.3947C10.4139 34.3947 10.4406 34.3947 10.4673 34.3947C10.4939 34.3914 10.5189 34.3881 10.5423 34.3847V34.8647C10.4656 34.8647 10.3906 34.8664 10.3173 34.8697C10.2473 34.8764 10.1723 34.8797 10.0923 34.8797C9.95893 34.8797 9.84893 34.8714 9.76227 34.8547C9.67893 34.8347 9.61393 34.7981 9.56727 34.7447C9.52393 34.6881 9.49393 34.6147 9.47727 34.5247C9.4606 34.4347 9.45227 34.3214 9.45227 34.1847V32.6447H9.10227V32.1747H9.45227V31.4047ZM12.0768 33.2147C12.0734 33.1114 12.0668 33.0214 12.0568 32.9447C12.0468 32.8647 12.0284 32.7981 12.0018 32.7447C11.9784 32.6881 11.9434 32.6464 11.8968 32.6197C11.8534 32.5897 11.7968 32.5747 11.7268 32.5747C11.6568 32.5747 11.5984 32.5914 11.5518 32.6247C11.5084 32.6547 11.4734 32.6964 11.4468 32.7497C11.4201 32.7997 11.4001 32.8564 11.3868 32.9197C11.3768 32.9831 11.3718 33.0464 11.3718 33.1097V33.2147H12.0768ZM11.3718 33.6247V33.8397C11.3718 33.9197 11.3768 33.9981 11.3868 34.0747C11.4001 34.1481 11.4201 34.2147 11.4468 34.2747C11.4734 34.3314 11.5084 34.3781 11.5518 34.4147C11.5951 34.4481 11.6484 34.4647 11.7118 34.4647C11.8284 34.4647 11.9134 34.4231 11.9668 34.3397C12.0201 34.2564 12.0568 34.1297 12.0768 33.9597H12.6968C12.6834 34.2731 12.6001 34.5114 12.4468 34.6747C12.2934 34.8381 12.0518 34.9197 11.7218 34.9197C11.4718 34.9197 11.2768 34.8781 11.1368 34.7947C10.9968 34.7114 10.8934 34.6014 10.8268 34.4647C10.7601 34.3281 10.7184 34.1747 10.7018 34.0047C10.6884 33.8347 10.6818 33.6647 10.6818 33.4947C10.6818 33.3147 10.6934 33.1414 10.7168 32.9747C10.7434 32.8081 10.7934 32.6597 10.8668 32.5297C10.9434 32.3997 11.0518 32.2964 11.1918 32.2197C11.3318 32.1431 11.5184 32.1047 11.7518 32.1047C11.9518 32.1047 12.1151 32.1381 12.2418 32.2047C12.3718 32.2681 12.4734 32.3597 12.5468 32.4797C12.6201 32.5964 12.6701 32.7397 12.6968 32.9097C12.7234 33.0764 12.7368 33.2631 12.7368 33.4697V33.6247H11.3718ZM14.4762 34.5797H14.4662C14.3895 34.7064 14.3029 34.7947 14.2062 34.8447C14.1129 34.8947 13.9962 34.9197 13.8562 34.9197C13.5729 34.9197 13.3645 34.8114 13.2312 34.5947C13.0979 34.3781 13.0312 34.0197 13.0312 33.5197C13.0312 33.0197 13.0979 32.6597 13.2312 32.4397C13.3645 32.2164 13.5729 32.1047 13.8562 32.1047C13.9862 32.1047 14.0962 32.1314 14.1862 32.1847C14.2795 32.2381 14.3629 32.3181 14.4362 32.4247H14.4462V31.2947H15.1362V34.8647H14.4762V34.5797ZM13.7212 33.5197C13.7212 33.8131 13.7429 34.0347 13.7862 34.1847C13.8329 34.3314 13.9312 34.4047 14.0812 34.4047C14.2345 34.4047 14.3329 34.3314 14.3762 34.1847C14.4229 34.0347 14.4462 33.8131 14.4462 33.5197C14.4462 33.2264 14.4229 33.0064 14.3762 32.8597C14.3329 32.7097 14.2345 32.6347 14.0812 32.6347C13.9312 32.6347 13.8329 32.7097 13.7862 32.8597C13.7429 33.0064 13.7212 33.2264 13.7212 33.5197ZM16.7974 31.2947H17.4874V32.4247H17.4974C17.5707 32.3181 17.6524 32.2381 17.7424 32.1847C17.8357 32.1314 17.9474 32.1047 18.0774 32.1047C18.3607 32.1047 18.569 32.2164 18.7024 32.4397C18.8357 32.6597 18.9024 33.0197 18.9024 33.5197C18.9024 34.0197 18.8357 34.3781 18.7024 34.5947C18.569 34.8114 18.3607 34.9197 18.0774 34.9197C17.9374 34.9197 17.819 34.8947 17.7224 34.8447C17.629 34.7947 17.544 34.7064 17.4674 34.5797H17.4574V34.8647H16.7974V31.2947ZM17.4874 33.5197C17.4874 33.8131 17.509 34.0347 17.5524 34.1847C17.599 34.3314 17.699 34.4047 17.8524 34.4047C18.0024 34.4047 18.099 34.3314 18.1424 34.1847C18.189 34.0347 18.2124 33.8131 18.2124 33.5197C18.2124 33.2264 18.189 33.0064 18.1424 32.8597C18.099 32.7097 18.0024 32.6347 17.8524 32.6347C17.699 32.6347 17.599 32.7097 17.5524 32.8597C17.509 33.0064 17.4874 33.2264 17.4874 33.5197ZM19.2974 35.2147C19.3574 35.2247 19.4174 35.2297 19.4774 35.2297C19.604 35.2297 19.694 35.1964 19.7474 35.1297C19.804 35.0631 19.8374 34.9747 19.8474 34.8647L19.0924 32.1747H19.8124L20.2124 34.0347H20.2224L20.5724 32.1747H21.2624L20.6124 34.6847C20.5524 34.9081 20.494 35.0881 20.4374 35.2247C20.384 35.3647 20.319 35.4714 20.2424 35.5447C20.169 35.6214 20.079 35.6714 19.9724 35.6947C19.869 35.7181 19.7374 35.7297 19.5774 35.7297H19.2974V35.2147ZM23.3202 33.7497V33.8547C23.3202 33.9381 23.3269 34.0147 23.3402 34.0847C23.3536 34.1514 23.3786 34.2081 23.4152 34.2547C23.4519 34.3014 23.5002 34.3381 23.5602 34.3647C23.6236 34.3914 23.7019 34.4047 23.7952 34.4047C23.9052 34.4047 24.0036 34.3697 24.0902 34.2997C24.1802 34.2264 24.2252 34.1147 24.2252 33.9647C24.2252 33.8847 24.2136 33.8164 24.1902 33.7597C24.1702 33.6997 24.1352 33.6464 24.0852 33.5997C24.0352 33.5531 23.9686 33.5114 23.8852 33.4747C23.8052 33.4347 23.7052 33.3947 23.5852 33.3547C23.4252 33.3014 23.2869 33.2431 23.1702 33.1797C23.0536 33.1164 22.9552 33.0431 22.8752 32.9597C22.7986 32.8731 22.7419 32.7747 22.7052 32.6647C22.6686 32.5514 22.6502 32.4214 22.6502 32.2747C22.6502 31.9214 22.7486 31.6581 22.9452 31.4847C23.1419 31.3114 23.4119 31.2247 23.7552 31.2247C23.9152 31.2247 24.0619 31.2431 24.1952 31.2797C24.3319 31.3131 24.4486 31.3697 24.5452 31.4497C24.6452 31.5264 24.7219 31.6264 24.7752 31.7497C24.8319 31.8697 24.8602 32.0147 24.8602 32.1847V32.2847H24.1702C24.1702 32.1147 24.1402 31.9847 24.0802 31.8947C24.0202 31.8014 23.9202 31.7547 23.7802 31.7547C23.7002 31.7547 23.6336 31.7664 23.5802 31.7897C23.5269 31.8131 23.4836 31.8447 23.4502 31.8847C23.4202 31.9214 23.3986 31.9647 23.3852 32.0147C23.3752 32.0647 23.3702 32.1164 23.3702 32.1697C23.3702 32.2797 23.3936 32.3731 23.4402 32.4497C23.4869 32.5231 23.5869 32.5914 23.7402 32.6547L24.2952 32.8947C24.4319 32.9547 24.5436 33.0181 24.6302 33.0847C24.7169 33.1481 24.7852 33.2181 24.8352 33.2947C24.8886 33.3681 24.9252 33.4497 24.9452 33.5397C24.9652 33.6297 24.9752 33.7297 24.9752 33.8397C24.9752 34.2164 24.8652 34.4914 24.6452 34.6647C24.4286 34.8347 24.1252 34.9197 23.7352 34.9197C23.3286 34.9197 23.0369 34.8314 22.8602 34.6547C22.6869 34.4781 22.6002 34.2247 22.6002 33.8947V33.7497H23.3202ZM25.913 33.5197C25.913 33.6564 25.9163 33.7831 25.923 33.8997C25.9297 34.0164 25.9447 34.1164 25.968 34.1997C25.9947 34.2831 26.033 34.3481 26.083 34.3947C26.133 34.4414 26.1997 34.4647 26.283 34.4647C26.423 34.4647 26.5197 34.3914 26.573 34.2447C26.6263 34.0981 26.653 33.8564 26.653 33.5197C26.653 33.1831 26.6263 32.9414 26.573 32.7947C26.5197 32.6481 26.423 32.5747 26.283 32.5747C26.1997 32.5747 26.133 32.5981 26.083 32.6447C26.033 32.6914 25.9947 32.7564 25.968 32.8397C25.9447 32.9231 25.9297 33.0231 25.923 33.1397C25.9163 33.2564 25.913 33.3831 25.913 33.5197ZM25.223 33.5197C25.223 33.2897 25.2413 33.0864 25.278 32.9097C25.3147 32.7331 25.3747 32.5864 25.458 32.4697C25.5413 32.3497 25.6497 32.2597 25.783 32.1997C25.9197 32.1364 26.0863 32.1047 26.283 32.1047C26.4897 32.1014 26.6613 32.1297 26.798 32.1897C26.9347 32.2464 27.043 32.3347 27.123 32.4547C27.203 32.5747 27.2597 32.7231 27.293 32.8997C27.3263 33.0764 27.343 33.2831 27.343 33.5197C27.343 33.7497 27.3247 33.9531 27.288 34.1297C27.2513 34.3064 27.1913 34.4547 27.108 34.5747C27.0247 34.6914 26.9147 34.7781 26.778 34.8347C26.6447 34.8914 26.4797 34.9197 26.283 34.9197C26.0763 34.9231 25.9047 34.8981 25.768 34.8447C25.6313 34.7881 25.523 34.7014 25.443 34.5847C25.363 34.4647 25.3063 34.3164 25.273 34.1397C25.2397 33.9597 25.223 33.7531 25.223 33.5197ZM27.7154 32.1747H28.3754V32.5347H28.3854C28.4554 32.4047 28.5404 32.3014 28.6404 32.2247C28.7404 32.1447 28.862 32.1047 29.0054 32.1047C29.0254 32.1047 29.0454 32.1064 29.0654 32.1097C29.0887 32.1097 29.1104 32.1114 29.1304 32.1147V32.7747C29.0937 32.7714 29.057 32.7697 29.0204 32.7697C28.987 32.7664 28.952 32.7647 28.9154 32.7647C28.8554 32.7647 28.7954 32.7731 28.7354 32.7897C28.6754 32.8064 28.6204 32.8347 28.5704 32.8747C28.5204 32.9114 28.4804 32.9614 28.4504 33.0247C28.4204 33.0847 28.4054 33.1597 28.4054 33.2497V34.8647H27.7154V32.1747ZM30.6754 33.2147C30.6721 33.1114 30.6654 33.0214 30.6554 32.9447C30.6454 32.8647 30.6271 32.7981 30.6004 32.7447C30.5771 32.6881 30.5421 32.6464 30.4954 32.6197C30.4521 32.5897 30.3954 32.5747 30.3254 32.5747C30.2554 32.5747 30.1971 32.5914 30.1504 32.6247C30.1071 32.6547 30.0721 32.6964 30.0454 32.7497C30.0187 32.7997 29.9987 32.8564 29.9854 32.9197C29.9754 32.9831 29.9704 33.0464 29.9704 33.1097V33.2147H30.6754ZM29.9704 33.6247V33.8397C29.9704 33.9197 29.9754 33.9981 29.9854 34.0747C29.9987 34.1481 30.0187 34.2147 30.0454 34.2747C30.0721 34.3314 30.1071 34.3781 30.1504 34.4147C30.1937 34.4481 30.2471 34.4647 30.3104 34.4647C30.4271 34.4647 30.5121 34.4231 30.5654 34.3397C30.6187 34.2564 30.6554 34.1297 30.6754 33.9597H31.2954C31.2821 34.2731 31.1987 34.5114 31.0454 34.6747C30.8921 34.8381 30.6504 34.9197 30.3204 34.9197C30.0704 34.9197 29.8754 34.8781 29.7354 34.7947C29.5954 34.7114 29.4921 34.6014 29.4254 34.4647C29.3587 34.3281 29.3171 34.1747 29.3004 34.0047C29.2871 33.8347 29.2804 33.6647 29.2804 33.4947C29.2804 33.3147 29.2921 33.1414 29.3154 32.9747C29.3421 32.8081 29.3921 32.6597 29.4654 32.5297C29.5421 32.3997 29.6504 32.2964 29.7904 32.2197C29.9304 32.1431 30.1171 32.1047 30.3504 32.1047C30.5504 32.1047 30.7137 32.1381 30.8404 32.2047C30.9704 32.2681 31.0721 32.3597 31.1454 32.4797C31.2187 32.5964 31.2687 32.7397 31.2954 32.9097C31.3221 33.0764 31.3354 33.2631 31.3354 33.4697V33.6247H29.9704ZM31.6948 32.1747H32.3548V32.4497H32.3648C32.4515 32.3264 32.5482 32.2381 32.6548 32.1847C32.7648 32.1314 32.8948 32.1047 33.0448 32.1047C33.2048 32.1047 33.3382 32.1414 33.4448 32.2147C33.5548 32.2881 33.6282 32.3947 33.6648 32.5347H33.6748C33.7282 32.3914 33.8132 32.2847 33.9298 32.2147C34.0498 32.1414 34.1915 32.1047 34.3548 32.1047C34.5848 32.1047 34.7532 32.1747 34.8598 32.3147C34.9698 32.4514 35.0248 32.6497 35.0248 32.9097V34.8647H34.3348V32.9847C34.3348 32.8714 34.3132 32.7847 34.2698 32.7247C34.2298 32.6647 34.1615 32.6347 34.0648 32.6347C33.9548 32.6347 33.8665 32.6714 33.7998 32.7447C33.7365 32.8181 33.7048 32.9347 33.7048 33.0947V34.8647H33.0148V32.9847C33.0148 32.8714 32.9932 32.7847 32.9498 32.7247C32.9098 32.6647 32.8415 32.6347 32.7448 32.6347C32.6348 32.6347 32.5465 32.6714 32.4798 32.7447C32.4165 32.8181 32.3848 32.9347 32.3848 33.0947V34.8647H31.6948V32.1747ZM35.4839 31.2947H36.1739V32.4247H36.1839C36.2572 32.3181 36.3389 32.2381 36.4289 32.1847C36.5222 32.1314 36.6339 32.1047 36.7639 32.1047C37.0472 32.1047 37.2556 32.2164 37.3889 32.4397C37.5222 32.6597 37.5889 33.0197 37.5889 33.5197C37.5889 34.0197 37.5222 34.3781 37.3889 34.5947C37.2556 34.8114 37.0472 34.9197 36.7639 34.9197C36.6239 34.9197 36.5056 34.8947 36.4089 34.8447C36.3156 34.7947 36.2306 34.7064 36.1539 34.5797H36.1439V34.8647H35.4839V31.2947ZM36.1739 33.5197C36.1739 33.8131 36.1956 34.0347 36.2389 34.1847C36.2856 34.3314 36.3856 34.4047 36.5389 34.4047C36.6889 34.4047 36.7856 34.3314 36.8289 34.1847C36.8756 34.0347 36.8989 33.8131 36.8989 33.5197C36.8989 33.2264 36.8756 33.0064 36.8289 32.8597C36.7856 32.7097 36.6889 32.6347 36.5389 32.6347C36.3856 32.6347 36.2856 32.7097 36.2389 32.8597C36.1956 33.0064 36.1739 33.2264 36.1739 33.5197ZM39.2389 33.5197C39.1922 33.5564 39.1422 33.5864 39.0889 33.6097C39.0356 33.6297 38.9872 33.6447 38.9439 33.6547C38.8039 33.6847 38.7039 33.7347 38.6439 33.8047C38.5839 33.8747 38.5539 33.9697 38.5539 34.0897C38.5539 34.1931 38.5739 34.2814 38.6139 34.3547C38.6539 34.4281 38.7206 34.4647 38.8139 34.4647C38.8606 34.4647 38.9089 34.4581 38.9589 34.4447C39.0089 34.4281 39.0539 34.4031 39.0939 34.3697C39.1372 34.3364 39.1722 34.2931 39.1989 34.2397C39.2256 34.1864 39.2389 34.1231 39.2389 34.0497V33.5197ZM37.9789 32.9997V32.9347C37.9789 32.7781 38.0039 32.6481 38.0539 32.5447C38.1039 32.4381 38.1706 32.3531 38.2539 32.2897C38.3406 32.2231 38.4406 32.1764 38.5539 32.1497C38.6706 32.1197 38.7939 32.1047 38.9239 32.1047C39.1306 32.1047 39.2972 32.1247 39.4239 32.1647C39.5506 32.2047 39.6489 32.2614 39.7189 32.3347C39.7889 32.4081 39.8356 32.4964 39.8589 32.5997C39.8856 32.6997 39.8989 32.8097 39.8989 32.9297V34.3447C39.8989 34.4714 39.9039 34.5697 39.9139 34.6397C39.9272 34.7097 39.9506 34.7847 39.9839 34.8647H39.3239C39.3006 34.8214 39.2822 34.7764 39.2689 34.7297C39.2589 34.6797 39.2489 34.6314 39.2389 34.5847H39.2289C39.1489 34.7247 39.0556 34.8164 38.9489 34.8597C38.8456 34.8997 38.7106 34.9197 38.5439 34.9197C38.4239 34.9197 38.3222 34.8997 38.2389 34.8597C38.1556 34.8164 38.0889 34.7581 38.0389 34.6847C37.9889 34.6114 37.9522 34.5297 37.9289 34.4397C37.9056 34.3464 37.8939 34.2547 37.8939 34.1647C37.8939 34.0381 37.9072 33.9297 37.9339 33.8397C37.9606 33.7464 38.0006 33.6681 38.0539 33.6047C38.1106 33.5381 38.1806 33.4831 38.2639 33.4397C38.3506 33.3964 38.4539 33.3581 38.5739 33.3247L38.9639 33.2197C39.0672 33.1931 39.1389 33.1564 39.1789 33.1097C39.2189 33.0631 39.2389 32.9947 39.2389 32.9047C39.2389 32.8014 39.2139 32.7214 39.1639 32.6647C39.1172 32.6047 39.0356 32.5747 38.9189 32.5747C38.8122 32.5747 38.7322 32.6064 38.6789 32.6697C38.6256 32.7331 38.5989 32.8181 38.5989 32.9247V32.9997H37.9789Z" fill="black"/>
<path d="M14.311 30.0624H6.78156C6.6728 30.0618 6.56522 30.0398 6.46497 29.9976C6.36472 29.9554 6.27376 29.8939 6.19729 29.8165C6.12081 29.7392 6.06032 29.6475 6.01927 29.5468C5.97822 29.4461 5.95741 29.3383 5.95803 29.2295V26.0107C5.95932 25.9445 5.94509 25.879 5.91649 25.8193C5.88788 25.7597 5.8457 25.7076 5.79333 25.6671L4.5698 24.693C3.06335 23.4883 1.97089 21.843 1.44509 19.9871L1.02156 18.486C0.966065 18.2997 0.939092 18.1062 0.941562 17.9118C0.946791 17.6053 1.0226 17.304 1.16311 17.0315C1.30362 16.759 1.50504 16.5225 1.75175 16.3405C1.99845 16.1584 2.28379 16.0356 2.58563 15.9817C2.88746 15.9278 3.19766 15.9441 3.49215 16.0295C3.8192 16.1277 4.11674 16.3055 4.35803 16.5471V6.66479C4.35951 6.33784 4.44612 6.01691 4.60933 5.73361C4.77255 5.45031 5.00674 5.2144 5.28884 5.04913C5.57095 4.88385 5.89124 4.79491 6.21817 4.79106C6.5451 4.7872 6.8674 4.86857 7.15333 5.02714V4.80126C7.15293 4.55718 7.20098 4.31546 7.29468 4.09008C7.38839 3.86471 7.52589 3.66017 7.69921 3.48832C7.96244 3.23372 8.29422 3.06143 8.6539 2.99257C9.01357 2.9237 9.38553 2.96125 9.72419 3.10061C10.0628 3.23997 10.3535 3.47509 10.5605 3.77716C10.7676 4.07923 10.882 4.43513 10.8898 4.80126V5.02244C11.1767 4.85984 11.5012 4.77546 11.831 4.77773C12.232 4.78025 12.6218 4.9108 12.9435 5.15036C13.2652 5.38992 13.5019 5.72596 13.6192 6.1095C13.9015 5.93979 14.2233 5.8471 14.5526 5.84069C14.8819 5.83429 15.2071 5.91439 15.4957 6.073C15.7843 6.23161 16.0263 6.46317 16.1974 6.74456C16.3686 7.02594 16.4629 7.34731 16.471 7.67656V10.7966C16.471 10.881 16.4482 10.9639 16.4051 11.0366C13.9722 15.173 13.6569 18.9754 15.4639 22.3307C15.5263 22.4399 15.5428 22.5694 15.5097 22.6908C15.4766 22.8121 15.3967 22.9153 15.2874 22.9777C15.2334 23.0086 15.1737 23.0286 15.112 23.0364C15.0502 23.0443 14.9875 23.0399 14.9274 23.0235C14.806 22.9904 14.7028 22.9105 14.6404 22.8013C13.9908 21.5681 13.065 20.5017 11.9352 19.6854C10.8054 18.8691 9.50225 18.3249 8.12744 18.0954C8.74705 19.2256 9.60283 20.209 10.6366 20.9788C11.6703 21.7486 12.8577 22.2868 14.118 22.5566C14.2428 22.584 14.3516 22.6599 14.4205 22.7676C14.4893 22.8753 14.5126 23.0059 14.4851 23.1307C14.4576 23.2555 14.3817 23.3643 14.2741 23.4331C14.1664 23.5019 14.0358 23.5252 13.911 23.4977C12.4587 23.1768 10.9402 23.3646 9.6098 24.0295C10.2843 24.4009 11.0474 24.5814 11.8169 24.5516C12.5863 24.5217 13.3331 24.2827 13.9769 23.8601C14.0798 23.8011 14.2012 23.7832 14.3167 23.8099C14.4323 23.8366 14.5335 23.906 14.6002 24.0041C14.6668 24.1023 14.6939 24.2219 14.676 24.3392C14.6582 24.4565 14.5967 24.5627 14.5039 24.6366C14.2472 24.9816 14.1115 25.4018 14.118 25.8319C14.2032 25.7672 14.2849 25.6981 14.3627 25.6248C14.43 25.5628 14.514 25.5217 14.6042 25.5067C14.6945 25.4917 14.7872 25.5033 14.871 25.5401C14.9544 25.5765 15.0255 25.6363 15.0756 25.7124C15.1257 25.7884 15.1527 25.8773 15.1533 25.9683V29.2295C15.154 29.3399 15.1326 29.4492 15.0903 29.5512C15.0481 29.6532 14.9859 29.7457 14.9075 29.8233C14.829 29.9009 14.7358 29.962 14.6334 30.0031C14.5309 30.0441 14.4213 30.0643 14.311 30.0624ZM6.88509 29.1213H14.198V26.853C13.99 26.9538 13.7649 27.0144 13.5345 27.0319C13.4591 27.0378 13.3834 27.0255 13.3138 26.9961C13.2442 26.9666 13.1827 26.9207 13.1345 26.8624C13.086 26.8046 13.0521 26.7359 13.0357 26.6622C13.0193 26.5885 13.0209 26.5119 13.0404 26.4389C13.0999 26.2208 13.1455 25.9992 13.1769 25.7754C13.2051 25.5966 13.2286 25.4083 13.2663 25.2248C11.5016 25.8224 10.0569 25.3754 8.41921 24.4671C8.34825 24.4281 8.28857 24.3714 8.24593 24.3026C8.2033 24.2337 8.17916 24.155 8.17584 24.0741C8.17253 23.9932 8.19016 23.9128 8.22702 23.8406C8.26389 23.7685 8.31874 23.7071 8.38627 23.6624C9.2635 23.0745 10.2542 22.6769 11.2945 22.4954C9.32504 21.4396 7.77337 19.7452 6.8945 17.6907C6.86041 17.6157 6.84659 17.5332 6.8544 17.4512C6.86221 17.3692 6.89138 17.2908 6.93901 17.2236C6.98664 17.1564 7.05105 17.103 7.12582 17.0685C7.20059 17.034 7.28309 17.0198 7.36509 17.0271C9.69744 17.2003 11.8946 18.1881 13.5722 19.8177C12.9933 16.9707 13.6474 13.9118 15.5298 10.6695V7.67656C15.5298 7.42694 15.4306 7.18755 15.2541 7.01104C15.0776 6.83454 14.8382 6.73538 14.5886 6.73538C14.339 6.73538 14.0996 6.83454 13.9231 7.01104C13.7466 7.18755 13.6474 7.42694 13.6474 7.67656C13.6474 7.80136 13.5979 7.92106 13.5096 8.00931C13.4214 8.09756 13.3017 8.14714 13.1769 8.14714C13.052 8.14714 12.9324 8.09756 12.8441 8.00931C12.7558 7.92106 12.7063 7.80136 12.7063 7.67656V6.65067C12.7003 6.46968 12.6422 6.29425 12.539 6.14544C12.4358 5.99662 12.2919 5.88074 12.1245 5.81169C11.9571 5.74264 11.7733 5.72335 11.5952 5.75614C11.4171 5.78893 11.2522 5.87241 11.1204 5.99656C11.0348 6.08235 10.9674 6.18447 10.9222 6.29684C10.8769 6.40921 10.8547 6.52954 10.8569 6.65067C10.8569 6.77548 10.8073 6.89518 10.719 6.98343C10.6308 7.07168 10.5111 7.12126 10.3863 7.12126C10.2615 7.12126 10.1418 7.07168 10.0535 6.98343C9.96526 6.89518 9.91568 6.77548 9.91568 6.65067V4.80126C9.90798 4.62107 9.84867 4.44688 9.7448 4.29943C9.64093 4.15198 9.49689 4.03748 9.32981 3.96955C9.16273 3.90163 8.97964 3.88314 8.80236 3.9163C8.62507 3.94945 8.46104 4.03284 8.3298 4.15656C8.15849 4.32742 8.06201 4.55931 8.06156 4.80126V6.65067C8.06156 6.77548 8.01198 6.89518 7.92373 6.98343C7.83548 7.07168 7.71578 7.12126 7.59097 7.12126C7.46617 7.12126 7.34647 7.07168 7.25822 6.98343C7.16997 6.89518 7.12039 6.77548 7.12039 6.65067C7.14409 6.51539 7.13789 6.37655 7.10223 6.24392C7.06657 6.11128 7.00232 5.98806 6.91397 5.88289C6.82563 5.77773 6.71534 5.69317 6.59085 5.63516C6.46635 5.57715 6.33067 5.54709 6.19333 5.54709C6.05598 5.54709 5.9203 5.57715 5.7958 5.63516C5.67131 5.69317 5.56102 5.77773 5.47268 5.88289C5.38434 5.98806 5.32008 6.11128 5.28442 6.24392C5.24876 6.37655 5.24257 6.51539 5.26627 6.65067V18.213C5.26965 18.3199 5.23654 18.4247 5.17239 18.5103C5.10823 18.5958 5.01687 18.6569 4.91333 18.6836C4.81167 18.71 4.7041 18.7017 4.60773 18.6599C4.51137 18.6181 4.43175 18.5453 4.38156 18.453L3.85921 17.4413C3.74788 17.2394 3.57346 17.0796 3.36264 16.9863C3.15183 16.8931 2.91625 16.8715 2.692 16.9249C2.46774 16.9783 2.26717 17.1037 2.12101 17.282C1.97485 17.4602 1.89115 17.6815 1.88274 17.9118C1.88193 18.0091 1.89622 18.106 1.92509 18.1989L2.34862 19.7048C2.82306 21.3774 3.81068 22.8588 5.17215 23.9401L6.38156 24.9189C6.54222 25.0477 6.67178 25.211 6.76058 25.3968C6.84939 25.5826 6.89517 25.7859 6.8945 25.9918L6.88509 29.1213Z" fill="black"/>
<path d="M13.2128 15.0084C13.088 15.0084 12.9683 14.9588 12.88 14.8705C12.7918 14.7823 12.7422 14.6626 12.7422 14.5378V7.55897C12.7422 7.43416 12.7918 7.31446 12.88 7.22621C12.9683 7.13796 13.088 7.08838 13.2128 7.08838C13.3376 7.08838 13.4573 7.13796 13.5455 7.22621C13.6338 7.31446 13.6834 7.43416 13.6834 7.55897V14.5378C13.6834 14.6626 13.6338 14.7823 13.5455 14.8705C13.4573 14.9588 13.3376 15.0084 13.2128 15.0084Z" fill="black"/>
<path d="M10.4198 14.4012C10.295 14.4012 10.1753 14.3516 10.0871 14.2633C9.9988 14.1751 9.94922 14.0554 9.94922 13.9306V6.64588C9.94922 6.52107 9.9988 6.40138 10.0871 6.31312C10.1753 6.22487 10.295 6.17529 10.4198 6.17529C10.5446 6.17529 10.6643 6.22487 10.7526 6.31312C10.8408 6.40138 10.8904 6.52107 10.8904 6.64588V13.9306C10.8904 14.0554 10.8408 14.1751 10.7526 14.2633C10.6643 14.3516 10.5446 14.4012 10.4198 14.4012Z" fill="black"/>
<path d="M7.62293 14.5424C7.49812 14.5424 7.37843 14.4928 7.29018 14.4045C7.20192 14.3163 7.15234 14.1966 7.15234 14.0718V6.64588C7.15234 6.52107 7.20192 6.40138 7.29018 6.31312C7.37843 6.22487 7.49812 6.17529 7.62293 6.17529C7.74774 6.17529 7.86744 6.22487 7.95569 6.31312C8.04394 6.40138 8.09352 6.52107 8.09352 6.64588V14.0718C8.09352 14.1966 8.04394 14.3163 7.95569 14.4045C7.86744 14.4928 7.74774 14.5424 7.62293 14.5424Z" fill="black"/>
<path d="M6.63072 20.2648C6.53476 20.2646 6.44117 20.235 6.36248 20.1801C6.0713 19.9817 5.75473 19.8234 5.42131 19.7095C5.11434 19.6069 4.84741 19.4104 4.65824 19.1477C4.46908 18.8851 4.36726 18.5696 4.36719 18.246C4.36719 18.1212 4.41677 18.0015 4.50502 17.9132C4.59327 17.825 4.71297 17.7754 4.83778 17.7754C4.96258 17.7754 5.08228 17.825 5.17053 17.9132C5.25878 18.0015 5.30836 18.1212 5.30836 18.246C5.30937 18.3728 5.34976 18.4962 5.42395 18.599C5.49814 18.7019 5.60246 18.7791 5.72248 18.8201C6.14277 18.9632 6.54171 19.1627 6.90836 19.413C6.95963 19.4483 7.00338 19.4935 7.03709 19.5458C7.07079 19.5981 7.09378 19.6566 7.10472 19.7179C7.11566 19.7792 7.11434 19.842 7.10083 19.9028C7.08732 19.9635 7.06189 20.021 7.02601 20.0719C6.98082 20.1338 6.92119 20.1837 6.85229 20.2174C6.7834 20.251 6.70734 20.2673 6.63072 20.2648Z" fill="black"/>
<path d="M25.2317 30.0625H17.7023C17.5935 30.0619 17.4859 30.0398 17.3857 29.9976C17.2854 29.9554 17.1945 29.8939 17.118 29.8166C17.0415 29.7392 16.981 29.6476 16.94 29.5468C16.8989 29.4461 16.8781 29.3383 16.8787 29.2295V25.9919C16.8793 25.9008 16.9063 25.8119 16.9564 25.7359C17.0066 25.6599 17.0776 25.6001 17.1611 25.5637C17.2449 25.5268 17.3376 25.5152 17.4278 25.5303C17.5181 25.5453 17.602 25.5863 17.6693 25.6484C17.7379 25.7136 17.8102 25.7749 17.8858 25.8319C17.8844 25.4 17.7424 24.9804 17.4811 24.6366C17.3883 24.5627 17.3268 24.4565 17.309 24.3392C17.2911 24.222 17.3182 24.1023 17.3848 24.0041C17.4515 23.906 17.5527 23.8366 17.6683 23.8099C17.7838 23.7832 17.9052 23.8012 18.0081 23.8601C18.6524 24.2836 19.4001 24.5232 20.1705 24.553C20.9409 24.5829 21.7048 24.4019 22.3799 24.0295C21.0625 23.3565 19.5527 23.1603 18.107 23.4742C17.9822 23.5017 17.8516 23.4784 17.7439 23.4096C17.6362 23.3408 17.5603 23.232 17.5328 23.1072C17.5054 22.9824 17.5286 22.8518 17.5975 22.7441C17.6663 22.6364 17.7751 22.5605 17.8999 22.5331C19.1633 22.2664 20.3536 21.728 21.3881 20.9552C22.4226 20.1824 23.2765 19.1937 23.8905 18.0578C21.0011 18.5566 18.8599 20.1048 17.354 22.7637C17.3231 22.8177 17.2819 22.8652 17.2326 22.9033C17.1834 22.9414 17.1271 22.9695 17.067 22.9859C17.007 23.0023 16.9442 23.0067 16.8825 22.9988C16.8207 22.991 16.761 22.971 16.707 22.9401C16.6529 22.9092 16.6054 22.868 16.5673 22.8187C16.5292 22.7695 16.5011 22.7132 16.4847 22.6531C16.4683 22.5931 16.4639 22.5303 16.4718 22.4685C16.4797 22.4068 16.4996 22.3471 16.5305 22.2931C18.3281 18.9331 18.0176 15.126 15.5893 10.9989C15.5462 10.9263 15.5235 10.8434 15.5234 10.7589V7.67659C15.5291 7.34378 15.6229 7.01842 15.7953 6.73368C15.9676 6.44894 16.2125 6.215 16.5047 6.05571C16.797 5.89642 17.1263 5.81748 17.459 5.82693C17.7917 5.83639 18.116 5.9339 18.3987 6.10953C18.4785 5.84021 18.6183 5.59247 18.8076 5.38493C18.9969 5.1774 19.2308 5.01546 19.4917 4.9113C19.7525 4.80713 20.0336 4.76344 20.3138 4.78351C20.594 4.80358 20.866 4.88689 21.1093 5.02718V4.8013C21.1093 4.30207 21.3076 3.82328 21.6606 3.47027C22.0137 3.11726 22.4924 2.91895 22.9917 2.91895C23.4832 2.921 23.9544 3.11523 24.3046 3.46012C24.4803 3.63585 24.6188 3.84518 24.7117 4.07562C24.8047 4.30605 24.8503 4.55286 24.8458 4.8013V5.02718C25.1307 4.86916 25.4517 4.78777 25.7774 4.79099C26.1032 4.7942 26.4226 4.88191 26.7043 5.04553C26.986 5.20914 27.2204 5.44307 27.3846 5.72443C27.5488 6.0058 27.6372 6.32496 27.6411 6.65071V16.5331C27.9167 16.2501 28.2704 16.0555 28.657 15.9741C29.0436 15.8928 29.4456 15.9283 29.812 16.0761C30.1783 16.224 30.4924 16.4775 30.7142 16.8044C30.936 17.1313 31.0555 17.5168 31.0576 17.9119C31.0573 18.0946 31.0335 18.2764 30.987 18.4531L30.554 19.9637C30.0258 21.8172 28.9357 23.4613 27.434 24.6695L26.2199 25.6484C26.1688 25.6885 26.1277 25.7401 26.0999 25.7989C26.0721 25.8577 26.0584 25.9222 26.0599 25.9872V29.206C26.0637 29.3171 26.0451 29.4279 26.0052 29.5316C25.9652 29.6354 25.9048 29.7301 25.8275 29.81C25.7502 29.8899 25.6577 29.9535 25.5553 29.9968C25.4529 30.0402 25.3429 30.0625 25.2317 30.0625ZM17.8058 29.1213H25.1187V26.0107C25.1199 25.8061 25.1655 25.6041 25.2524 25.4188C25.3394 25.2336 25.4656 25.0694 25.6223 24.9378L26.8223 23.9589C28.1816 22.8757 29.1687 21.3951 29.6458 19.7236L30.074 18.2225C30.1019 18.1213 30.1161 18.0168 30.1164 17.9119C30.1163 17.7245 30.0661 17.5406 29.9709 17.3793C29.8757 17.2179 29.7391 17.085 29.5752 16.9942C29.4546 16.9267 29.3216 16.884 29.1842 16.8686C29.0468 16.8532 28.9078 16.8656 28.7752 16.9048C28.6382 16.9447 28.5112 17.0132 28.4025 17.1056C28.2938 17.1981 28.206 17.3125 28.1446 17.4413L27.5846 18.4578C27.5346 18.5505 27.4549 18.6238 27.3583 18.6658C27.2617 18.7079 27.1537 18.7163 27.0518 18.6897C26.9498 18.6632 26.8597 18.6031 26.7959 18.5193C26.7321 18.4354 26.6983 18.3325 26.6999 18.2272V6.65071C26.6989 6.4061 26.6027 6.17149 26.4317 5.99659C26.2998 5.87244 26.135 5.78897 25.9569 5.75618C25.7788 5.72339 25.595 5.74267 25.4276 5.81173C25.2602 5.88078 25.1162 5.99666 25.013 6.14547C24.9098 6.29429 24.8518 6.46971 24.8458 6.65071C24.8458 6.77552 24.7962 6.89521 24.708 6.98347C24.6197 7.07172 24.5 7.1213 24.3752 7.1213C24.2504 7.1213 24.1307 7.07172 24.0424 6.98347C23.9542 6.89521 23.9046 6.77552 23.9046 6.65071V4.8013C23.905 4.6807 23.8815 4.56122 23.8355 4.44975C23.7894 4.33829 23.7218 4.23705 23.6364 4.15189C23.4622 3.97915 23.2275 3.88121 22.9823 3.87895C22.7326 3.87895 22.4933 3.9781 22.3167 4.15461C22.1402 4.33111 22.0411 4.57051 22.0411 4.82012V6.66953C22.0411 6.79434 21.9915 6.91404 21.9033 7.00229C21.815 7.09054 21.6953 7.14012 21.5705 7.14012C21.4457 7.14012 21.326 7.09054 21.2377 7.00229C21.1495 6.91404 21.0999 6.79434 21.0999 6.66953C21.0989 6.42492 21.0027 6.19031 20.8317 6.01542C20.6997 5.89275 20.5352 5.81056 20.3579 5.77862C20.1805 5.74667 19.9977 5.7663 19.8312 5.83519C19.6647 5.90407 19.5215 6.01931 19.4185 6.16721C19.3156 6.31511 19.2573 6.48946 19.2505 6.66953V7.69542C19.2505 7.82022 19.2009 7.93992 19.1127 8.02817C19.0244 8.11642 18.9047 8.166 18.7799 8.166C18.6551 8.166 18.5354 8.11642 18.4472 8.02817C18.3589 7.93992 18.3093 7.82022 18.3093 7.69542C18.3093 7.4458 18.2102 7.20641 18.0337 7.0299C17.8572 6.8534 17.6178 6.75424 17.3681 6.75424C17.1185 6.75424 16.8791 6.8534 16.7026 7.0299C16.5261 7.20641 16.427 7.4458 16.427 7.69542V10.6931C18.3093 13.9307 18.9399 16.9989 18.3752 19.846C20.0552 18.1983 22.2639 17.1981 24.6105 17.0225C24.6925 17.0151 24.775 17.0293 24.8498 17.0638C24.9245 17.0983 24.9889 17.1518 25.0366 17.2189C25.0842 17.2861 25.1134 17.3646 25.1212 17.4465C25.129 17.5285 25.1152 17.6111 25.0811 17.686C24.1969 19.7307 22.6571 21.4229 20.7046 22.4954C21.7394 22.681 22.7247 23.0783 23.5987 23.6625C23.6663 23.7072 23.7211 23.7686 23.758 23.8407C23.7948 23.9128 23.8125 23.9932 23.8092 24.0741C23.8058 24.155 23.7817 24.2337 23.7391 24.3026C23.6964 24.3715 23.6368 24.4281 23.5658 24.4672C21.9281 25.3754 20.4834 25.8225 18.7187 25.2248C18.7564 25.4084 18.7799 25.5966 18.8034 25.7801C18.8319 26.0049 18.8727 26.228 18.9258 26.4484C18.9452 26.5213 18.9468 26.5979 18.9305 26.6716C18.9141 26.7453 18.8802 26.814 18.8317 26.8719C18.7835 26.9302 18.722 26.976 18.6524 27.0055C18.5828 27.035 18.5071 27.0473 18.4317 27.0413C18.2117 27.0249 17.9966 26.9691 17.7964 26.8766L17.8058 29.1213Z" fill="black"/>
<path d="M18.7909 15.0084C18.6661 15.0084 18.5464 14.9588 18.4581 14.8705C18.3699 14.7823 18.3203 14.6626 18.3203 14.5378V7.55897C18.3203 7.43416 18.3699 7.31446 18.4581 7.22621C18.5464 7.13796 18.6661 7.08838 18.7909 7.08838C18.9157 7.08838 19.0354 7.13796 19.1237 7.22621C19.2119 7.31446 19.2615 7.43416 19.2615 7.55897V14.5378C19.2615 14.6626 19.2119 14.7823 19.1237 14.8705C19.0354 14.9588 18.9157 15.0084 18.7909 15.0084Z" fill="black"/>
<path d="M21.5878 14.4012C21.463 14.4012 21.3433 14.3516 21.255 14.2633C21.1668 14.1751 21.1172 14.0554 21.1172 13.9306V6.64588C21.1172 6.52107 21.1668 6.40138 21.255 6.31312C21.3433 6.22487 21.463 6.17529 21.5878 6.17529C21.7126 6.17529 21.8323 6.22487 21.9205 6.31312C22.0088 6.40138 22.0584 6.52107 22.0584 6.64588V13.9306C22.0584 14.0554 22.0088 14.1751 21.9205 14.2633C21.8323 14.3516 21.7126 14.4012 21.5878 14.4012Z" fill="black"/>
<path d="M24.3768 14.5424C24.252 14.5424 24.1323 14.4928 24.0441 14.4045C23.9558 14.3163 23.9062 14.1966 23.9062 14.0718V6.64588C23.9062 6.52107 23.9558 6.40138 24.0441 6.31312C24.1323 6.22487 24.252 6.17529 24.3768 6.17529C24.5016 6.17529 24.6213 6.22487 24.7096 6.31312C24.7978 6.40138 24.8474 6.52107 24.8474 6.64588V14.0718C24.8474 14.1966 24.7978 14.3163 24.7096 14.4045C24.6213 14.4928 24.5016 14.5424 24.3768 14.5424Z" fill="black"/>
<path d="M25.3748 20.2644C25.2735 20.2657 25.1745 20.2342 25.0924 20.1746C25.0104 20.1151 24.9499 20.0306 24.9197 19.9338C24.8896 19.8371 24.8915 19.7332 24.9252 19.6376C24.9588 19.542 25.0225 19.4598 25.1066 19.4033C25.4711 19.1521 25.8686 18.9525 26.2878 18.8103C26.4082 18.77 26.5129 18.6929 26.5872 18.5899C26.6615 18.4869 26.7016 18.3632 26.7019 18.2362C26.7019 18.1114 26.7515 17.9917 26.8397 17.9035C26.928 17.8152 27.0477 17.7656 27.1725 17.7656C27.2973 17.7656 27.417 17.8152 27.5052 17.9035C27.5935 17.9917 27.6431 18.1114 27.6431 18.2362C27.643 18.5599 27.5412 18.8753 27.352 19.138C27.1629 19.4006 26.8959 19.5971 26.589 19.6997C26.2555 19.8136 25.939 19.9719 25.6478 20.1703C25.5689 20.2295 25.4734 20.2624 25.3748 20.2644Z" fill="black"/>
<path d="M13.4961 27.046C13.4266 27.0455 13.3581 27.0297 13.2954 26.9996C13.2328 26.9695 13.1776 26.9259 13.1338 26.8719C13.086 26.8145 13.0525 26.7466 13.0362 26.6738C13.0198 26.601 13.021 26.5253 13.0397 26.4531C13.0991 26.2318 13.1447 26.0071 13.1761 25.7801C13.1997 25.5966 13.2279 25.4084 13.2608 25.2248C11.5008 25.8178 10.0561 25.3754 8.41848 24.4672C8.34762 24.4285 8.28789 24.3723 8.24504 24.3039C8.20219 24.2355 8.17765 24.1572 8.17378 24.0766C8.17018 23.9951 8.1878 23.9141 8.22492 23.8415C8.26205 23.7689 8.31739 23.7072 8.38554 23.6625C9.26277 23.0745 10.2535 22.677 11.2938 22.4954C9.32339 21.4408 7.77136 19.746 6.89378 17.6907C6.85939 17.6151 6.84563 17.5317 6.8539 17.4491C6.86216 17.3664 6.89216 17.2874 6.94084 17.2201C6.98852 17.1524 7.05322 17.0985 7.12841 17.0638C7.2036 17.0291 7.28661 17.0148 7.36907 17.0225C9.70143 17.1993 11.8979 18.1884 13.5761 19.8178C13.002 16.9378 13.6844 13.8366 15.6138 10.5566C15.6548 10.4855 15.7138 10.4263 15.7848 10.385C15.8558 10.3438 15.9364 10.3218 16.0185 10.3213C16.1014 10.321 16.1829 10.3426 16.2548 10.3839C16.3267 10.4252 16.3864 10.4848 16.4279 10.5566C18.3385 13.8507 19.0067 16.9425 18.4373 19.8178C20.1237 18.1838 22.3307 17.1944 24.6726 17.0225C24.7551 17.0148 24.8381 17.0291 24.9133 17.0638C24.9885 17.0985 25.0532 17.1524 25.1008 17.2201C25.1488 17.2879 25.1779 17.3671 25.1854 17.4497C25.1928 17.5324 25.1782 17.6155 25.1432 17.6907C24.2437 19.744 22.681 21.4359 20.7055 22.4954C21.7385 22.6822 22.722 23.0795 23.595 23.6625C23.6627 23.7068 23.7179 23.7678 23.7551 23.8397C23.7924 23.9116 23.8105 23.9919 23.8076 24.0728C23.8048 24.1537 23.7811 24.2325 23.7389 24.3016C23.6967 24.3707 23.6374 24.4277 23.5667 24.4672C21.9244 25.3754 20.4797 25.8178 18.7197 25.2248C18.7573 25.4084 18.7808 25.5966 18.8044 25.7801C18.8296 26.0067 18.8689 26.2314 18.922 26.4531C18.9421 26.5257 18.9445 26.602 18.9289 26.6757C18.9133 26.7494 18.8803 26.8183 18.8326 26.8766C18.784 26.934 18.7223 26.979 18.6526 27.0076C18.583 27.0363 18.5076 27.0478 18.4326 27.0413C17.3502 26.9613 16.5032 25.9072 15.9808 25.0413C15.4208 25.9542 14.5691 26.9613 13.5197 27.0413L13.4961 27.046ZM15.9997 23.5872C16.0884 23.5874 16.1752 23.6127 16.2501 23.6602C16.3251 23.7077 16.3851 23.7753 16.4232 23.8554C16.755 24.6154 17.2536 25.2909 17.882 25.8319C17.88 25.4016 17.7379 24.9837 17.4773 24.6413C17.3895 24.5686 17.3312 24.4665 17.313 24.354C17.2948 24.2415 17.3181 24.1262 17.3785 24.0295C17.4446 23.9328 17.5445 23.8643 17.6585 23.8373C17.7725 23.8103 17.8925 23.8269 17.995 23.8836C18.641 24.303 19.3885 24.5397 20.1581 24.5687C20.9278 24.5977 21.691 24.4179 22.3667 24.0484C21.0487 23.3772 19.5396 23.1811 18.0938 23.4931C17.969 23.5205 17.8384 23.4973 17.7307 23.4284C17.623 23.3596 17.5471 23.2508 17.5197 23.126C17.4922 23.0012 17.5155 22.8706 17.5843 22.7629C17.6531 22.6553 17.7619 22.5793 17.8867 22.5519C19.1492 22.2843 20.3384 21.7455 21.372 20.9727C22.4056 20.2 23.2588 19.2118 23.8726 18.0766C22.4917 18.2957 21.1815 18.8355 20.0471 19.6528C18.9127 20.4701 17.9858 21.542 17.3408 22.7825C17.2784 22.8923 17.175 22.9728 17.0532 23.0064C16.9314 23.0399 16.8013 23.0237 16.6914 22.9613C16.5816 22.8989 16.5011 22.7954 16.4675 22.6736C16.434 22.5518 16.4502 22.4217 16.5126 22.3119C18.2067 19.1495 18.0326 15.5919 15.9997 11.7331C13.9432 15.5872 13.7597 19.1401 15.4585 22.3119C15.5209 22.4211 15.5374 22.5506 15.5043 22.672C15.4712 22.7933 15.3912 22.8965 15.282 22.9589C15.1728 23.0213 15.0433 23.0378 14.9219 23.0047C14.8006 22.9716 14.6974 22.8917 14.635 22.7825C13.9856 21.549 13.0599 20.4825 11.9301 19.6661C10.8002 18.8498 9.49694 18.3058 8.12201 18.0766C8.73955 19.2112 9.595 20.1989 10.6298 20.9722C11.6646 21.7454 12.8542 22.2859 14.1173 22.5566C14.2372 22.5857 14.3408 22.6607 14.4059 22.7654C14.471 22.8701 14.4925 22.9962 14.4655 23.1166C14.4395 23.2371 14.3672 23.3425 14.2643 23.4103C14.1613 23.478 14.0359 23.5027 13.915 23.4789C12.4591 23.1608 10.938 23.3553 9.60907 24.0295C10.284 24.3992 11.0464 24.579 11.8153 24.55C12.5843 24.521 13.331 24.2842 13.9761 23.8648C14.0803 23.8112 14.2007 23.7983 14.3139 23.8288C14.427 23.8593 14.5247 23.9308 14.5879 24.0295C14.6542 24.1273 14.6813 24.2464 14.6639 24.3632C14.6465 24.48 14.5857 24.586 14.4938 24.6601C14.2491 25.0019 14.1175 25.4116 14.1173 25.8319C14.7524 25.2878 15.2587 24.6095 15.5997 23.846C15.6373 23.7712 15.6942 23.7077 15.7645 23.6622C15.8348 23.6167 15.916 23.5908 15.9997 23.5872Z" fill="black"/>
</g>
<defs>
<clipPath id="clip0_2152_8858">
<rect width="32" height="32" fill="white" transform="translate(0 0.5)"/>
</clipPath>
</defs>
</svg>
