<svg width="52" height="48" viewBox="0 0 52 48" fill="none" xmlns="http://www.w3.org/2000/svg">
<mask id="mask0_809_4973" style="mask-type:luminance" maskUnits="userSpaceOnUse" x="0" y="0" width="53" height="48">
<path d="M0.000976562 3.8147e-06H52.001V48H0.000976562V3.8147e-06Z" fill="white"/>
</mask>
<g mask="url(#mask0_809_4973)">
<path d="M36.6025 8.66731C37.8392 7.98997 39.2571 7.00831 40.5359 5.62034C40.5359 5.62034 41.1504 8.66197 39.997 11.4327" stroke="black" stroke-width="1.40625" stroke-miterlimit="10" stroke-linecap="round" stroke-linejoin="round"/>
<path d="M11.3715 14.3646C10.1207 13.8164 8.76502 13.0137 7.56821 11.842C7.56821 11.842 7.11565 14.554 8.47791 17.3781" stroke="black" stroke-width="1.40625" stroke-miterlimit="10" stroke-linecap="round" stroke-linejoin="round"/>
<path d="M11.3567 40.1846C10.9602 41.2539 10.2755 42.4307 9.10742 43.5233C9.10742 43.5233 12.3872 44.0988 15.2667 42.2306" stroke="black" stroke-width="1.40625" stroke-miterlimit="10" stroke-linecap="round" stroke-linejoin="round"/>
<path d="M20.0492 3.63379C19.9423 4.02969 19.9047 4.44023 19.9374 4.8471C18.0257 3.85766 15.7545 5.71148 16.6067 7.58104C14.6613 7.72382 13.0312 9.14113 12.7783 10.9305C12.6906 11.5516 12.7675 12.1911 13.0041 12.7784" stroke="black" stroke-width="1.40625" stroke-miterlimit="10" stroke-linecap="round" stroke-linejoin="round"/>
<path d="M36.9796 10.5617C37.0702 8.06253 34.9374 5.62503 32.1729 5.31743C32.7544 3.67109 31.1865 1.9474 29.3305 2.17193C28.7833 2.23822 28.2679 2.46678 27.8669 2.81637C27.0278 1.29893 25.1554 0.456028 23.3428 0.769903" stroke="black" stroke-width="1.40625" stroke-miterlimit="10" stroke-linecap="round" stroke-linejoin="round"/>
<path d="M18.8158 12.3908C17.7438 11.9018 16.4975 11.7157 15.2303 11.9298C12.464 12.3969 10.5278 14.615 10.5197 17.1136C10.1639 16.9971 9.77113 16.9618 9.3728 17.0291C8.16228 17.2336 7.36085 18.3029 7.58286 19.4175C7.69286 19.9691 8.03319 20.4282 8.4955 20.7267C7.5853 21.407 7.09607 22.5115 7.32256 23.6479C7.42493 24.1613 7.66127 24.621 7.99247 25.0019" stroke="black" stroke-width="1.40625" stroke-miterlimit="10" stroke-linecap="round" stroke-linejoin="round"/>
<path d="M42.5643 25.6259C43.2902 25.196 43.8812 24.5591 44.2201 23.7626C45.077 21.749 43.9984 19.4772 41.811 18.6884C41.5517 18.5948 41.2886 18.5272 41.0246 18.4825C41.3708 18.1018 41.6581 17.6648 41.8657 17.177C42.8963 14.755 41.5991 12.0226 38.9683 11.0738C37.3541 10.4917 35.6139 10.7174 34.2713 11.5371C33.8475 10.7173 33.0982 10.0379 32.1074 9.68052C30.0388 8.93446 27.7048 9.87355 26.8945 11.7779" stroke="black" stroke-width="1.40625" stroke-miterlimit="10" stroke-linecap="round" stroke-linejoin="round"/>
<path d="M33.4642 44.2406C33.692 45.197 34.0172 46.2413 34.481 47.2964C34.481 47.2964 30.7571 47.4025 28.3799 44.6976" stroke="black" stroke-width="1.40625" stroke-miterlimit="10" stroke-linecap="round" stroke-linejoin="round"/>
<path d="M28.1351 18.9958C29.2533 18.262 29.9781 17.0434 29.9313 15.7024C29.8665 13.8532 28.3978 12.3318 26.4747 12.0089C26.4776 11.9535 26.4793 11.898 26.4793 11.8419C26.4793 9.88226 24.7541 8.29357 22.6254 8.29291C20.502 8.29226 18.7688 9.88723 18.7689 11.8421C18.769 12.6076 19.0332 13.3159 19.4809 13.8955C19.4363 13.8934 19.3914 13.8923 19.3463 13.8923C17.8145 13.8923 16.5839 15.0796 16.6812 16.509C16.7114 16.9559 16.8751 17.3725 17.1353 17.725" stroke="black" stroke-width="1.40625" stroke-miterlimit="10" stroke-linecap="round" stroke-linejoin="round"/>
<path d="M33.1437 23.1515C32.7255 22.1763 31.6925 21.4863 30.4845 21.4863C30.0951 21.4863 29.7241 21.5583 29.3858 21.6881C28.9909 19.3523 26.7968 17.5646 24.1487 17.5646C23.0701 17.5646 22.0672 17.8619 21.2301 18.3713C20.7183 17.6615 19.8426 17.1934 18.8479 17.1934C17.2695 17.1934 15.99 18.3713 15.99 19.8243V19.8258C13.5165 19.8572 11.5215 21.7118 11.5215 23.9964C11.5215 24.2658 11.5492 24.5292 11.6021 24.7844" stroke="black" stroke-width="1.40625" stroke-miterlimit="10" stroke-linecap="round" stroke-linejoin="round"/>
<path d="M35.5969 26.7248C35.8479 25.2166 36.3711 23.2201 37.4622 21.4612C37.4622 21.4612 33.6355 22.0294 30.9482 24.9643" stroke="black" stroke-width="1.40625" stroke-miterlimit="10" stroke-linecap="round" stroke-linejoin="round"/>
<path d="M44.4092 38.7778C45.0352 37.9238 45.4009 36.8946 45.4009 35.7868C45.4009 34.2744 44.7186 32.9095 43.6233 31.9359C44.1856 31.1984 44.5168 30.3008 44.5168 29.3313C44.5168 26.824 42.3087 24.7914 39.5851 24.7914C37.9183 24.7914 36.4459 25.5533 35.5532 26.7186C34.2304 25.6228 32.4805 24.9553 30.5609 24.9553C27.3446 24.9553 24.6034 26.8273 23.5527 29.4524" stroke="black" stroke-width="1.40625" stroke-miterlimit="10" stroke-linecap="round" stroke-linejoin="round"/>
<path d="M23.3037 42.5201C24.148 43.8239 25.6951 44.6972 27.4636 44.6972C29.0296 44.6972 30.421 44.0119 31.3056 42.9499C31.9866 43.7855 33.0715 44.3261 34.2935 44.3261C36.3353 44.3261 37.9931 42.8169 38.0252 40.9444C38.5216 41.0713 39.0441 41.1406 39.5845 41.1406C39.9434 41.1406 40.2947 41.1107 40.6357 41.0533" stroke="black" stroke-width="1.40625" stroke-miterlimit="10" stroke-linecap="round" stroke-linejoin="round"/>
<path d="M25.9957 33.7379C25.9957 30.8505 23.4531 28.5096 20.3165 28.5096C19.9502 28.5096 19.5923 28.5428 19.2452 28.6038C19.246 28.5767 19.2476 28.5498 19.2476 28.5227C19.2476 26.8371 17.7632 25.4708 15.9325 25.4708C15.1145 25.4708 14.3664 25.744 13.7883 26.196C13.0692 25.2713 11.8935 24.6681 10.5642 24.6681C8.37509 24.6681 6.60059 26.3017 6.60059 28.3168C6.60059 29.6542 7.38272 30.823 8.54845 31.4582C7.73545 32.4073 7.24896 33.6045 7.24896 34.9069C7.24896 37.9862 9.96058 40.4825 13.3056 40.4825C13.6849 40.4825 14.0555 40.4489 14.4154 40.3875C14.8483 42.541 16.8976 44.1724 19.3622 44.1724C22.1416 44.1724 24.3945 42.0983 24.3945 39.5397C24.3945 38.8944 24.2509 38.2801 23.9919 37.722C25.2174 36.7629 25.9957 35.3344 25.9957 33.7379Z" stroke="black" stroke-width="1.40625" stroke-miterlimit="10" stroke-linecap="round" stroke-linejoin="round"/>
<path d="M10.4434 34.529C10.4434 36.11 11.8331 37.3894 13.5506 37.3894" stroke="black" stroke-width="1.40625" stroke-miterlimit="10" stroke-linecap="round" stroke-linejoin="round"/>
</g>
</svg>
