<svg width="32" height="33" viewBox="0 0 32 33" fill="none" xmlns="http://www.w3.org/2000/svg">
<g clip-path="url(#clip0_2152_8833)">
<path d="M28.6654 32.5H4.66536C2.8267 32.5 1.33203 31.004 1.33203 29.1667V3.83333C1.33203 1.996 2.8267 0.5 4.66536 0.5H25.9987C26.3667 0.5 26.6654 0.798667 26.6654 1.16667V5.83333H28.6654C29.0334 5.83333 29.332 6.132 29.332 6.5V31.8333C29.332 32.2013 29.0334 32.5 28.6654 32.5ZM2.66536 6.49867V29.1667C2.66536 30.2693 3.5627 31.1667 4.66536 31.1667H27.9987V7.16667H4.66536C3.91603 7.16667 3.2227 6.91733 2.66536 6.49867ZM4.66536 1.83333C3.5627 1.83333 2.66536 2.73067 2.66536 3.83333C2.66536 4.936 3.5627 5.83333 4.66536 5.83333H25.332V1.83333H4.66536Z" fill="black"/>
<path d="M20.0002 27.1708C18.6642 27.1708 17.3282 26.7695 15.9988 25.9681C13.2175 27.6468 10.4068 27.5695 7.63216 25.7361C7.44416 25.6121 7.33216 25.4041 7.33216 25.1801C7.33216 24.9575 7.44416 24.7228 7.6295 24.5988C8.49083 24.0241 9.3655 23.6215 10.2442 23.3921C8.64416 21.9428 7.66816 19.8841 7.3375 17.2495C7.31083 17.0441 7.38283 16.8388 7.5295 16.6935C7.67616 16.5495 7.87883 16.4801 8.08816 16.5055C10.2068 16.7881 11.9642 17.5308 13.3388 18.7215C13.2975 16.2948 13.9962 13.8695 15.4282 11.4895C15.6708 11.0881 16.3295 11.0881 16.5708 11.4895C18.0028 13.8708 18.7028 16.2948 18.6602 18.7215C20.0335 17.5308 21.7922 16.7881 23.9108 16.5055C24.1228 16.4788 24.3228 16.5481 24.4695 16.6935C24.6148 16.8388 24.6868 17.0441 24.6615 17.2495C24.3308 19.8841 23.3562 21.9428 21.7548 23.3921C22.6335 23.6215 23.5068 24.0255 24.3695 24.5988C24.5655 24.7295 24.6708 24.9468 24.6668 25.1668C24.6708 25.3881 24.5655 25.6055 24.3668 25.7361C22.9175 26.6935 21.4602 27.1708 20.0002 27.1708ZM15.9988 24.5135C16.1268 24.5135 16.2535 24.5495 16.3655 24.6241C18.4975 26.0308 20.5762 26.2121 22.6935 25.1668C21.8002 24.7228 20.9068 24.5001 20.0255 24.5001C19.7242 24.5001 19.4602 24.2988 19.3828 24.0081C19.3028 23.7175 19.4295 23.4095 19.6895 23.2575C21.5548 22.1668 22.7082 20.4348 23.1935 17.9815C21.0788 18.4388 19.4455 19.4748 18.3322 21.0681C18.1495 21.3255 17.8162 21.4228 17.5255 21.3001C17.2362 21.1775 17.0708 20.8681 17.1308 20.5588C17.6108 18.0775 17.2415 15.6628 15.9988 13.2068C14.7562 15.6615 14.3868 18.0775 14.8668 20.5588C14.9268 20.8681 14.7615 21.1761 14.4722 21.3001C14.1815 21.4228 13.8468 21.3268 13.6655 21.0681C12.5522 19.4748 10.9188 18.4388 8.80416 17.9815C9.2895 20.4348 10.4428 22.1655 12.3082 23.2575C12.5682 23.4095 12.6948 23.7161 12.6148 24.0081C12.5375 24.2988 12.2735 24.5001 11.9722 24.5001C11.0908 24.5001 10.1975 24.7228 9.30416 25.1655C11.4162 26.2121 13.4988 26.0295 15.6308 24.6228C15.7442 24.5495 15.8708 24.5135 15.9988 24.5135Z" fill="black"/>
<path d="M15.9987 28.4998C15.6307 28.4998 15.332 28.2012 15.332 27.8332V23.8332C15.332 23.4652 15.6307 23.1665 15.9987 23.1665C16.3667 23.1665 16.6654 23.4652 16.6654 23.8332V27.8332C16.6654 28.2012 16.3667 28.4998 15.9987 28.4998Z" fill="black"/>
</g>
<defs>
<clipPath id="clip0_2152_8833">
<rect width="32" height="32" fill="white" transform="translate(0 0.5)"/>
</clipPath>
</defs>
</svg>
