<svg width="33" height="33" viewBox="0 0 33 33" fill="none" xmlns="http://www.w3.org/2000/svg">
<g clip-path="url(#clip0_2152_8818)">
<path d="M29.1667 17.8332C28.7987 17.8332 28.5 17.5345 28.5 17.1665V11.8332C28.5 11.4652 28.7987 11.1665 29.1667 11.1665C29.5347 11.1665 29.8333 11.4652 29.8333 11.8332V17.1665C29.8333 17.5345 29.5347 17.8332 29.1667 17.8332Z" fill="black"/>
<path d="M3.83464 27.1665C3.46664 27.1665 3.16797 26.8678 3.16797 26.4998V11.8332C3.16797 11.4652 3.46664 11.1665 3.83464 11.1665C4.20264 11.1665 4.5013 11.4652 4.5013 11.8332V26.4998C4.5013 26.8678 4.20264 27.1665 3.83464 27.1665Z" fill="black"/>
<path d="M13.1667 27.1668H1.16667C0.798667 27.1668 0.5 26.8682 0.5 26.5002C0.5 26.1322 0.798667 25.8335 1.16667 25.8335H13.1667C13.5347 25.8335 13.8333 26.1322 13.8333 26.5002C13.8333 26.8682 13.5347 27.1668 13.1667 27.1668Z" fill="black"/>
<path d="M28.1654 12.5C25.776 12.5 23.832 10.556 23.832 8.16667V1.16667C23.832 0.798667 24.1307 0.5 24.4987 0.5H29.1654C31.0027 0.5 32.4987 1.996 32.4987 3.83333V8.16667C32.4987 10.556 30.5547 12.5 28.1654 12.5ZM25.1654 1.83333V8.16667C25.1654 9.82133 26.5107 11.1667 28.1654 11.1667C29.82 11.1667 31.1654 9.82133 31.1654 8.16667V3.83333C31.1654 2.73067 30.268 1.83333 29.1654 1.83333H25.1654Z" fill="black"/>
<path d="M20.4987 12.5C17.9254 12.5 15.832 10.4067 15.832 7.83333V1.16667C15.832 0.798667 16.1307 0.5 16.4987 0.5H24.4987C24.8667 0.5 25.1654 0.798667 25.1654 1.16667V7.83333C25.1654 10.4067 23.072 12.5 20.4987 12.5ZM17.1654 1.83333V7.83333C17.1654 9.67067 18.6614 11.1667 20.4987 11.1667C22.336 11.1667 23.832 9.67067 23.832 7.83333V1.83333H17.1654Z" fill="black"/>
<path d="M12.4987 12.5C9.92536 12.5 7.83203 10.4067 7.83203 7.83333V1.16667C7.83203 0.798667 8.1307 0.5 8.4987 0.5H16.4987C16.8667 0.5 17.1654 0.798667 17.1654 1.16667V7.83333C17.1654 10.4067 15.072 12.5 12.4987 12.5ZM9.16536 1.83333V7.83333C9.16536 9.67067 10.6614 11.1667 12.4987 11.1667C14.336 11.1667 15.832 9.67067 15.832 7.83333V1.83333H9.16536Z" fill="black"/>
<path d="M4.83333 12.5C2.444 12.5 0.5 10.556 0.5 8.16667V3.83333C0.5 1.996 1.996 0.5 3.83333 0.5H8.5C8.868 0.5 9.16667 0.798667 9.16667 1.16667V8.16667C9.16667 10.556 7.22267 12.5 4.83333 12.5ZM3.83333 1.83333C2.73067 1.83333 1.83333 2.73067 1.83333 3.83333V8.16667C1.83333 9.82133 3.17867 11.1667 4.83333 11.1667C6.488 11.1667 7.83333 9.82133 7.83333 8.16667V1.83333H3.83333Z" fill="black"/>
<path d="M27.8361 31.1708C26.5001 31.1708 25.1641 30.7695 23.8348 29.9681C21.0548 31.6468 18.2401 31.5695 15.4681 29.7361C15.2801 29.6121 15.1681 29.4041 15.1681 29.1801C15.1681 28.9575 15.2788 28.7228 15.4654 28.5988C16.3268 28.0241 17.2014 27.6215 18.0801 27.3921C16.4801 25.9428 15.5041 23.8841 15.1734 21.2495C15.1468 21.0441 15.2188 20.8388 15.3654 20.6935C15.5121 20.5481 15.7201 20.4801 15.9228 20.5055C18.0414 20.7881 19.8001 21.5308 21.1734 22.7215C21.1308 20.2948 21.8308 17.8708 23.2641 15.4895C23.5054 15.0881 24.1654 15.0881 24.4054 15.4895C25.8388 17.8708 26.5388 20.2948 26.4961 22.7215C27.8694 21.5308 29.6281 20.7881 31.7468 20.5055C31.9508 20.4801 32.1574 20.5481 32.3041 20.6935C32.4508 20.8388 32.5228 21.0441 32.4961 21.2495C32.1654 23.8841 31.1908 25.9428 29.5894 27.3921C30.4681 27.6215 31.3428 28.0255 32.2041 28.5988C32.4001 28.7295 32.5054 28.9468 32.5014 29.1668C32.5054 29.3881 32.4001 29.6055 32.2014 29.7361C30.7534 30.6935 29.2948 31.1708 27.8361 31.1708ZM23.8348 28.5135C23.9628 28.5135 24.0908 28.5495 24.2014 28.6241C26.3334 30.0308 28.4121 30.2121 30.5294 29.1668C29.6361 28.7228 28.7428 28.5001 27.8614 28.5001C27.5601 28.5001 27.2961 28.2988 27.2188 28.0081C27.1401 27.7175 27.2654 27.4095 27.5254 27.2575C29.3921 26.1668 30.5441 24.4361 31.0294 21.9815C28.9148 22.4388 27.2814 23.4748 26.1681 25.0668C25.9881 25.3255 25.6494 25.4215 25.3628 25.2988C25.0721 25.1761 24.9081 24.8668 24.9681 24.5575C25.4481 22.0775 25.0788 19.6615 23.8361 17.2055C22.5934 19.6615 22.2241 22.0761 22.7041 24.5575C22.7641 24.8668 22.6001 25.1748 22.3094 25.2988C22.0214 25.4215 21.6841 25.3255 21.5041 25.0668C20.3908 23.4748 18.7574 22.4388 16.6428 21.9815C17.1281 24.4348 18.2801 26.1655 20.1468 27.2575C20.4068 27.4095 20.5321 27.7161 20.4534 28.0081C20.3734 28.2988 20.1094 28.5001 19.8081 28.5001C18.9268 28.5001 18.0334 28.7228 17.1401 29.1655C19.2561 30.2108 21.3348 30.0295 23.4681 28.6228C23.5788 28.5495 23.7068 28.5135 23.8348 28.5135Z" fill="black"/>
<path d="M23.8346 32.4998C23.4666 32.4998 23.168 32.2012 23.168 31.8332V27.8332C23.168 27.4652 23.4666 27.1665 23.8346 27.1665C24.2026 27.1665 24.5013 27.4652 24.5013 27.8332V31.8332C24.5013 32.2012 24.2026 32.4998 23.8346 32.4998Z" fill="black"/>
</g>
<defs>
<clipPath id="clip0_2152_8818">
<rect width="32" height="32" fill="white" transform="translate(0.5 0.5)"/>
</clipPath>
</defs>
</svg>
