<svg width="33" height="33" viewBox="0 0 33 33" fill="none" xmlns="http://www.w3.org/2000/svg">
<g clip-path="url(#clip0_2156_4261)">
<path d="M20.5014 16.5038C19.1654 16.5038 17.8294 16.1025 16.5001 15.3012C13.7214 16.9798 10.9094 16.9038 8.13338 15.0692C7.94538 14.9452 7.83338 14.7372 7.83338 14.5132C7.83338 14.2905 7.94405 14.0558 8.13072 13.9318C8.99205 13.3572 9.86672 12.9545 10.7441 12.7252C9.14405 11.2758 8.16938 9.21715 7.83872 6.58382C7.81205 6.37848 7.88405 6.17182 8.03072 6.02782C8.17738 5.88248 8.38405 5.80382 8.58805 5.83982C10.7067 6.12248 12.4654 6.86515 13.8387 8.05448C13.7961 5.62915 14.4961 3.20382 15.9294 0.822484C16.1707 0.421151 16.8307 0.421151 17.0707 0.822484C18.5041 3.20382 19.2041 5.62782 19.1614 8.05448C20.5347 6.86382 22.2934 6.12248 24.4121 5.83982C24.6187 5.80515 24.8227 5.88115 24.9694 6.02782C25.1161 6.17182 25.1881 6.37848 25.1614 6.58382C24.8307 9.21848 23.8561 11.2772 22.2561 12.7252C23.1347 12.9545 24.0081 13.3585 24.8694 13.9318C25.0654 14.0638 25.1707 14.2798 25.1667 14.4998C25.1707 14.7198 25.0654 14.9385 24.8667 15.0692C23.4187 16.0265 21.9601 16.5038 20.5014 16.5038ZM16.5001 13.8465C16.6281 13.8465 16.7561 13.8825 16.8667 13.9572C18.9974 15.3612 21.0774 15.5425 23.1947 14.4985C22.3014 14.0558 21.4081 13.8332 20.5267 13.8332C20.2254 13.8332 19.9614 13.6318 19.8841 13.3412C19.8054 13.0505 19.9307 12.7438 20.1907 12.5905C22.0574 11.5012 23.2094 9.76915 23.6947 7.31315C21.5587 7.76915 19.9627 8.78515 18.8334 10.3998C18.6521 10.6598 18.3147 10.7558 18.0267 10.6332C17.7361 10.5105 17.5721 10.2025 17.6321 9.89315C18.1121 7.41315 17.7427 4.99715 16.5001 2.54115C15.2574 4.99715 14.8881 7.41182 15.3681 9.89315C15.4281 10.2012 15.2641 10.5105 14.9734 10.6332C14.6854 10.7572 14.3481 10.6612 14.1681 10.4012C13.0374 8.78515 11.4414 7.76915 9.30538 7.31315C9.79072 9.76915 10.9427 11.5012 12.8094 12.5905C13.0694 12.7425 13.1961 13.0505 13.1161 13.3412C13.0387 13.6318 12.7747 13.8332 12.4734 13.8332C11.5921 13.8332 10.6987 14.0558 9.80538 14.4985C11.9214 15.5425 14.0001 15.3612 16.1334 13.9572C16.2441 13.8825 16.3721 13.8465 16.5001 13.8465Z" fill="black"/>
<path d="M16.5 20.5C16.132 20.5 15.8334 20.2013 15.8334 19.8333V13.1667C15.8334 12.7987 16.132 12.5 16.5 12.5C16.868 12.5 17.1667 12.7987 17.1667 13.1667V19.8333C17.1667 20.2013 16.868 20.5 16.5 20.5Z" fill="black"/>
<path d="M22.5 23.1665H10.5C9.39733 23.1665 8.5 22.2692 8.5 21.1665C8.5 20.0638 9.39733 19.1665 10.5 19.1665H22.5C23.6027 19.1665 24.5 20.0638 24.5 21.1665C24.5 22.2692 23.6027 23.1665 22.5 23.1665ZM10.5 20.4998C10.132 20.4998 9.83333 20.7998 9.83333 21.1665C9.83333 21.5332 10.132 21.8332 10.5 21.8332H22.5C22.868 21.8332 23.1667 21.5332 23.1667 21.1665C23.1667 20.7998 22.868 20.4998 22.5 20.4998H10.5Z" fill="black"/>
<path d="M18.8547 32.4999H14.1467C12.4987 32.4999 11.08 31.2692 10.8467 29.6385L9.84002 22.5932C9.78802 22.2292 10.0414 21.8919 10.4054 21.8399C10.768 21.7945 11.1067 22.0399 11.16 22.4065L12.1667 29.4505C12.3054 30.4279 13.1574 31.1665 14.1454 31.1665H18.8534C19.8427 31.1665 20.6934 30.4279 20.832 29.4505L21.8387 22.4065C21.892 22.0425 22.2307 21.8012 22.5934 21.8399C22.9574 21.8919 23.2107 22.2292 23.1587 22.5932L22.152 29.6372C21.92 31.2692 20.5014 32.4999 18.8547 32.4999Z" fill="black"/>
</g>
<defs>
<clipPath id="clip0_2156_4261">
<rect width="32" height="32" fill="white" transform="translate(0.5 0.5)"/>
</clipPath>
</defs>
</svg>
